<svg version="1.1" xmlns="http://www.w3.org/2000/svg" xmlns:xlink="http://www.w3.org/1999/xlink" width="105.28708" height="29.368" viewBox="0,0,105.28708,29.368"><defs><linearGradient x1="241.31198" y1="165.22112" x2="241.31198" y2="194.58912" gradientUnits="userSpaceOnUse" id="color-1"><stop offset="0" stop-color="#1c1c1c" stop-opacity="0"/><stop offset="1" stop-color="#1c1c1c"/></linearGradient></defs><g transform="translate(-188.66844,-165.22112)"><g data-paper-data="{&quot;isPaintingLayer&quot;:true}" fill-rule="nonzero" stroke-linejoin="miter" stroke-miterlimit="10" stroke-dasharray="" stroke-dashoffset="0" style="mix-blend-mode: normal"><path d="M188.66845,190.99386c0,-6.25543 0,-18.80438 0,-22.24983c0,-1.71531 1.65048,-3.52291 3.74412,-3.52291c9.69984,0 82.48972,0 98.30821,0c1.94425,0 3.04287,1.30872 3.06481,3.34179c0.06465,5.98988 0.18942,18.26727 0.16734,21.88721c-0.01198,1.96388 -1.55555,4.139 -3.94843,4.139c-17.35744,0 -89.52245,0 -98.30821,0c-1.72196,0 -3.02785,-1.41556 -3.02785,-3.59526z" fill="url(#color-1)" stroke="none" stroke-width="0" stroke-linecap="butt"/><text transform="translate(215.39698,183.85493) scale(0.36936,0.36936)" font-size="40" xml:space="preserve" fill="#a9e43a" fill-rule="nonzero" stroke="none" stroke-width="1" stroke-linecap="butt" stroke-linejoin="miter" stroke-miterlimit="10" stroke-dasharray="" stroke-dashoffset="0" font-family="Malgun Gothic" font-weight="normal" text-anchor="start" style="mix-blend-mode: normal"><tspan x="0" dy="0">Shut down</tspan></text><path d="M207.56163,174.72059c1.48306,1.33408 2.4106,3.23676 2.4106,5.34868c0,4.03578 -3.38711,7.30742 -7.56533,7.30742c-4.17822,0 -7.56533,-3.27164 -7.56533,-7.30742c0,-2.11192 0.92754,-4.0146 2.4106,-5.34868" fill="none" stroke="#a9e43a" stroke-width="4" stroke-linecap="butt"/><path d="M202.14618,180.2883l0.07858,-8.87907" fill="none" stroke="#a9e43a" stroke-width="4" stroke-linecap="round"/></g></g></svg>