<svg version="1.1" xmlns="http://www.w3.org/2000/svg" xmlns:xlink="http://www.w3.org/1999/xlink" width="19.5625" height="18.5" viewBox="0,0,19.5625,18.5"><defs><radialGradient cx="240" cy="180" r="9.78125" gradientUnits="userSpaceOnUse" id="color-1"><stop offset="0" stop-color="#92e23a"/><stop offset="1" stop-color="#92e23a" stop-opacity="0"/></radialGradient><radialGradient cx="240" cy="180" r="3.92857" gradientUnits="userSpaceOnUse" id="color-2"><stop offset="0" stop-color="#000000" stop-opacity="0"/><stop offset="1" stop-color="#000000" stop-opacity="0"/></radialGradient></defs><g transform="translate(-230.21875,-170.75)"><g data-paper-data="{&quot;isPaintingLayer&quot;:true}" fill-rule="nonzero" stroke-linecap="butt" stroke-linejoin="miter" stroke-miterlimit="10" stroke-dasharray="" stroke-dashoffset="0" style="mix-blend-mode: normal"><path d="M230.21875,180c0,-5.10863 4.37922,-9.25 9.78125,-9.25c5.40203,0 9.78125,4.14137 9.78125,9.25c0,5.10863 -4.37922,9.25 -9.78125,9.25c-5.40203,0 -9.78125,-4.14137 -9.78125,-9.25zM239.82143,183.95238c2.20914,0 4,-1.79086 4,-4c0,-2.20914 -1.79086,-4 -4,-4c-2.20914,0 -4,1.79086 -4,4c0,2.20914 1.79086,4 4,4z" fill="url(#color-1)" stroke="none" stroke-width="0"/><path d="M243.92857,180c0,2.07107 -1.75888,3.75 -3.92857,3.75c-2.16969,0 -3.92857,-1.67893 -3.92857,-3.75c0,-2.07107 1.75888,-3.75 3.92857,-3.75c2.16969,0 3.92857,1.67893 3.92857,3.75z" fill="url(#color-2)" stroke="#9cd41f" stroke-width="1"/></g></g></svg>