<svg version="1.1" xmlns="http://www.w3.org/2000/svg" xmlns:xlink="http://www.w3.org/1999/xlink" width="381.92242" height="516.01202" viewBox="0,0,381.92242,516.01202"><g transform="translate(114.85285,79.75777)"><g data-paper-data="{&quot;isPaintingLayer&quot;:true}" fill-rule="nonzero" stroke-linejoin="miter" stroke-miterlimit="10" stroke-dasharray="" stroke-dashoffset="0" style="mix-blend-mode: normal"><path d="M214.36264,242.00518c0,-21.02659 0,-70.07257 0,-81.83539c0,-4.95693 3.40563,-10.03966 6.56039,-10.03966c5.95079,0 26.57057,0.0854 37.31855,0.13172c4.00031,0.01723 6.63311,5.13382 6.63311,10.22951c0,11.57395 0.19488,59.79104 0.19488,81.51382c0,6.86711 -2.48865,9.63941 -6.04814,9.63941c-10.52544,0 -32.11809,0 -38.19584,0c-3.11533,0 -6.46295,-3.703 -6.46295,-9.63941z" fill="#292929" stroke="#292929" stroke-width="4" stroke-linecap="butt"/><path d="M230.99099,434.25425l22.52252,-1.5015" fill="none" stroke="#000000" stroke-width="4" stroke-linecap="round"/><path d="M-112.85285,-77.75777l10.51051,1.5015" fill="none" stroke="#000000" stroke-width="4" stroke-linecap="round"/><path d="M222.53175,193.59259c0,-6.82876 0,-22.801 0,-26.77778c0,-1.75112 2.1336,-3.6402 4.23627,-3.6402c4.28898,0 20.11189,0.06618 27.11058,0.09639c2.0695,0.00893 3.37371,1.42996 3.38327,3.65519c0.03069,7.14038 0.09527,22.62089 0.09527,26.44418c0,1.67189 -1.45235,3.34392 -3.58913,3.34392c-7.37014,0 -24.2047,0 -28.11111,0c-1.58493,0 -3.12516,-1.19807 -3.12516,-3.1217z" fill="none" stroke="#a9e43a" stroke-width="2.5" stroke-linecap="butt"/></g></g></svg>