<svg version="1.1" xmlns="http://www.w3.org/2000/svg" xmlns:xlink="http://www.w3.org/1999/xlink" width="491.31492" height="363" viewBox="0,0,491.31492,363"><g transform="translate(4.49999,1.69995)"><g data-paper-data="{&quot;isPaintingLayer&quot;:true}" stroke-miterlimit="10" stroke-dasharray="" stroke-dashoffset="0" style="mix-blend-mode: normal"><path d="M-4.49999,361.30005v-363h491.31492v363z" fill="#ffffff" fill-rule="nonzero" stroke="#000000" stroke-width="0" stroke-linecap="butt" stroke-linejoin="miter"/><path d="M249.48604,184.45182c-3.5281,3.5281 -6.12776,5.33856 -8.17035,6.0349c-0.60349,-1.85689 -1.62477,-3.57452 -3.06386,-5.01362c-1.48552,-1.43909 -3.20315,-2.46038 -5.06004,-3.11029c0.74276,-2.04258 2.55324,-4.64223 6.03492,-8.1239c8.35602,-8.40245 23.21114,-18.66178 26.04291,-15.83002c2.83176,2.83176 -7.42755,17.6869 -15.78357,26.04293zM234.08209,199.90846c-1.38149,1.33479 -3.16409,2.02371 -4.94665,2.10983v0.04306h-0.44564c-11.94322,0.43058 -17.15724,-13.08953 -13.05733,-11.66863c5.39227,1.85148 7.58038,-0.8181 7.66506,-0.90421c2.9858,-2.84181 7.79876,-2.84181 10.78456,0c2.9858,2.88486 2.9858,7.57815 0,10.41996z" fill="#a3e339" fill-rule="evenodd" stroke="#a3e339" stroke-width="2.5" stroke-linecap="round" stroke-linejoin="round"/><text transform="translate(209.625,225.93187) scale(0.5,0.5)" font-size="40" xml:space="preserve" fill="#a3e339" fill-rule="nonzero" stroke="none" stroke-width="1" stroke-linecap="butt" stroke-linejoin="miter" stroke-miterlimit="10" stroke-dasharray="" stroke-dashoffset="0" font-family="Malgun Gothic" font-weight="normal" text-anchor="start" style="mix-blend-mode: normal"><tspan x="0" dy="0">Paint</tspan></text></g></g></svg>