<svg version="1.1" xmlns="http://www.w3.org/2000/svg" xmlns:xlink="http://www.w3.org/1999/xlink" width="104.95961" height="56.5" viewBox="0,0,104.95961,56.5"><g transform="translate(-9.0404,-286.58333)"><g data-paper-data="{&quot;isPaintingLayer&quot;:true}" stroke-miterlimit="10" stroke-dasharray="" stroke-dashoffset="0" style="mix-blend-mode: normal"><path d="M11.0404,336.2759c0,-10.55732 0.2096,-34.8362 0.2096,-41.29213c0,-3.10864 3.8391,-6.40044 7.93005,-6.40044c11.50673,0 66.83135,0 86.14754,0c4.17885,0 6.67242,3.91825 6.67242,7.44846c0,6.46161 0,28.46907 0,39.19608c0,3.68619 -2.49967,5.85546 -5.41479,5.85546c-10.22278,0 -70.36697,0 -89.71081,0c-3.80164,0 -5.834,-1.72179 -5.834,-4.80743z" fill="#1a1a1a" fill-rule="nonzero" stroke="#1a1a1a" stroke-width="4" stroke-linecap="butt" stroke-linejoin="miter"/><path d="M81.0953,323.46709h4.95826l5.13856,-5.57281l-5.52921,-5.99647l-7.63271,8.27773zM85.66292,307.30269l5.52921,-5.99647c0.57096,-0.65179 1.53256,-0.65179 2.13356,0l7.66277,8.31032c0.57095,0.6192 0.57095,1.66207 0,2.28127l-5.55927,5.99647l-7.69282,8.34292c-0.27046,0.3259 -0.66111,0.48884 -1.05176,0.48884h-6.22036c-0.39066,0 -0.7813,-0.16295 -1.05175,-0.48884l-4.56762,-4.92102c-0.57095,-0.6192 -0.57095,-1.66207 0,-2.31386z" fill="#a3e339" fill-rule="evenodd" stroke="none" stroke-width="1" stroke-linecap="butt" stroke-linejoin="miter"/><path d="M67.75,330.61657c0,-8.40038 0,-26.98281 0,-31.65031c0,-2.08072 2.40442,-4.18848 4.66964,-4.18848c4.69511,0 22.16625,0 29.76387,0c2.19548,0 3.56649,1.75164 3.56649,3.55966c0,4.57169 0,24.67662 0,32.90794c0,2.18423 -1.36838,3.5324 -3.56649,3.5324c-7.8795,0 -26.42084,0 -30.81189,0c-1.82279,0 -3.62161,-1.61164 -3.62161,-4.16121z" fill="none" fill-rule="nonzero" stroke="#a3e339" stroke-width="2.5" stroke-linecap="butt" stroke-linejoin="miter"/><path d="M43.38491,317.71393c-2.19222,2.19222 -3.80754,3.31717 -5.07672,3.74984c-0.37498,-1.15379 -1.00957,-2.22106 -1.90376,-3.11526c-0.92304,-0.89419 -1.99031,-1.52878 -3.1441,-1.93261c0.46152,-1.26918 1.58648,-2.88449 3.74985,-5.04786c5.19209,-5.22094 14.42246,-11.59567 16.182,-9.83613c1.75954,1.75954 -4.61518,10.98992 -9.80727,16.18201zM33.81352,327.31806c-0.8584,0.82938 -1.96603,1.25745 -3.07365,1.31096v0.02675h-0.2769c-7.42103,0.26754 -10.66081,-8.1333 -8.11329,-7.25041c3.35054,1.15043 4.71014,-0.50833 4.76275,-0.56184c1.85526,-1.76578 4.84583,-1.76578 6.70109,0c1.85526,1.79254 1.85526,4.70875 0,6.47454z" fill="#a3e339" fill-rule="evenodd" stroke="none" stroke-width="0" stroke-linecap="round" stroke-linejoin="round"/></g></g></svg>