<svg version="1.1" xmlns="http://www.w3.org/2000/svg" xmlns:xlink="http://www.w3.org/1999/xlink" width="165.5" height="59" viewBox="0,0,165.5,59"><defs><linearGradient x1="240" y1="150.5" x2="240" y2="209.5" gradientUnits="userSpaceOnUse" id="color-1"><stop offset="0" stop-color="#1a1a1a" stop-opacity="0"/><stop offset="1" stop-color="#1a1a1a"/></linearGradient></defs><g transform="translate(-157.25,-150.5)"><g data-paper-data="{&quot;isPaintingLayer&quot;:true}" fill-rule="nonzero" stroke-linecap="butt" stroke-linejoin="miter" stroke-miterlimit="10" stroke-dasharray="" stroke-dashoffset="0" style="mix-blend-mode: normal"><path d="M157.25,203.08333c0,-12.40157 0,-39.0525 0,-46c0,-3.24048 3.39759,-6.58333 7.75,-6.58333c16.64345,0 121.76664,0 150.5,0c4.60683,0 7.25,3.77839 7.25,9.33333c0,13.14308 0,36.2313 0,42.75c0,3.37955 -2.83403,6.91667 -7.75,6.91667c-29.71599,0 -135.5049,0 -151.25,0c-3.85627,0 -6.5,-2.49639 -6.5,-6.41667z" fill="url(#color-1)" stroke="none" stroke-width="0"/><text transform="translate(164.25,168.71409) scale(0.39058,0.39058)" font-size="40" xml:space="preserve" fill="#a0e23a" fill-rule="nonzero" stroke="none" stroke-width="1" stroke-linecap="butt" stroke-linejoin="miter" stroke-miterlimit="10" stroke-dasharray="" stroke-dashoffset="0" font-family="Malgun Gothic" font-weight="normal" text-anchor="start" style="mix-blend-mode: normal"><tspan x="0" dy="0">Moving Background</tspan></text><path d="M254.11953,196.08333v-12.5h14.25v12.5z" fill="#00edff" stroke="none" stroke-width="0"/><path d="M204.25,197.62612c0,-4.73796 0,-12.64566 0,-15.30689c0,-1.72567 1.17031,-3.73589 2.63145,-3.73589c6.14087,0 48.40592,0 61.50589,0c2.43529,0 3.86267,1.50187 3.86267,2.90098c0,2.5906 0,11.45943 0,16.42012c0,2.04727 -1.5084,3.4289 -3.30606,3.4289c-6.92113,0 -50.80067,0 -62.0625,0c-1.67763,0 -2.63145,-1.514 -2.63145,-3.70721z" fill="none" stroke="#a0e23a" stroke-width="2.5"/></g></g></svg>