<svg version="1.1" xmlns="http://www.w3.org/2000/svg" xmlns:xlink="http://www.w3.org/1999/xlink" width="490.00901" height="368" viewBox="0,0,490.00901,368"><g transform="translate(6.0045,5.25)"><g data-paper-data="{&quot;isPaintingLayer&quot;:true}" fill="#000000" fill-rule="nonzero" stroke-width="0" stroke-linecap="butt" stroke-linejoin="miter" stroke-miterlimit="10" stroke-dasharray="" stroke-dashoffset="0" style="mix-blend-mode: normal"><path d="M-6.0045,362.75v-368h490.00901v368z" stroke="#000000"/><path d="M413.49294,167.99999c0,33.34004 -26.72714,60.36751 -59.69675,60.36751c-20.25645,0 -38.15647,-10.20244 -48.94913,-25.80302c7.84867,8.1907 18.89744,13.29054 31.13734,13.29054c23.81433,0 43.11965,-19.30532 43.11965,-43.11965c0,-23.81433 -19.30532,-43.11965 -43.11965,-43.11965c-19.71287,0 -36.33613,13.22819 -41.47734,31.29212c1.37947,-11.92013 6.19309,-22.77907 13.41357,-31.53804c10.95046,-13.28368 27.43676,-21.7373 45.87556,-21.7373c32.96961,0 59.69675,27.02746 59.69675,60.36751z" stroke="none"/><path d="M250.9,194.66c0,0.7732 -0.58203,1.4 -1.3,1.4c-0.71797,0 -1.3,-0.6268 -1.3,-1.4c0,-0.7732 0.58203,-1.4 1.3,-1.4c0.71797,0 1.3,0.6268 1.3,1.4z" stroke="none"/><path d="M238.9,238.99333c0,0.7732 -0.58203,1.4 -1.3,1.4c-0.71797,0 -1.3,-0.6268 -1.3,-1.4c0,-0.7732 0.58203,-1.4 1.3,-1.4c0.71797,0 1.3,0.6268 1.3,1.4z" stroke="none"/><path d="M326.9,81.66c0,0.7732 -0.58203,1.4 -1.3,1.4c-0.71797,0 -1.3,-0.6268 -1.3,-1.4c0,-0.7732 0.58203,-1.4 1.3,-1.4c0.71797,0 1.3,0.6268 1.3,1.4z" stroke="none"/><path d="M212.23333,128.66c0,0.7732 -0.58203,1.4 -1.3,1.4c-0.71797,0 -1.3,-0.6268 -1.3,-1.4c0,-0.7732 0.58203,-1.4 1.3,-1.4c0.71797,0 1.3,0.6268 1.3,1.4z" stroke="none"/><path d="M433.23333,73.66c0,0.7732 -0.58203,1.4 -1.3,1.4c-0.71797,0 -1.3,-0.6268 -1.3,-1.4c0,-0.7732 0.58203,-1.4 1.3,-1.4c0.71797,0 1.3,0.6268 1.3,1.4z" stroke="none"/><path d="M173.9,75.32667c0,0.7732 -0.58203,1.4 -1.3,1.4c-0.71797,0 -1.3,-0.6268 -1.3,-1.4c0,-0.7732 0.58203,-1.4 1.3,-1.4c0.71797,0 1.3,0.6268 1.3,1.4z" stroke="none"/><path d="M219.31429,183.0981c2.63256,0 4.76667,2.29826 4.76667,5.13333c0,2.83506 -2.13411,5.13333 -4.76667,5.13333c-2.63256,0 -4.76667,-2.29826 -4.76667,-5.13333c0,-2.83506 2.13411,-5.13333 4.76667,-5.13333z" stroke="none"/><path d="M426.31429,289.0981c2.63256,0 4.76667,2.29826 4.76667,5.13333c0,2.83506 -2.13411,5.13333 -4.76667,5.13333c-2.63256,0 -4.76667,-2.29826 -4.76667,-5.13333c0,-2.83506 2.13411,-5.13333 4.76667,-5.13333z" stroke="none"/><path d="M77.31429,257.0981c2.63256,0 4.76667,2.29826 4.76667,5.13333c0,2.83506 -2.13411,5.13333 -4.76667,5.13333c-2.63256,0 -4.76667,-2.29826 -4.76667,-5.13333c0,-2.83506 2.13411,-5.13333 4.76667,-5.13333z" stroke="none"/><path d="M304.31429,235.0981c2.63256,0 4.76667,2.29826 4.76667,5.13333c0,2.83506 -2.13411,5.13333 -4.76667,5.13333c-2.63256,0 -4.76667,-2.29826 -4.76667,-5.13333c0,-2.83506 2.13411,-5.13333 4.76667,-5.13333z" stroke="none"/><path d="M145.98096,169.76477c2.63256,0 4.76667,2.29826 4.76667,5.13333c0,2.83506 -2.13411,5.13333 -4.76667,5.13333c-2.63256,0 -4.76667,-2.29826 -4.76667,-5.13333c0,-2.83506 2.13411,-5.13333 4.76667,-5.13333z" stroke="none"/><path d="M49.98096,57.76477c2.63256,0 4.76667,2.29826 4.76667,5.13333c0,2.83506 -2.13411,5.13333 -4.76667,5.13333c-2.63256,0 -4.76667,-2.29826 -4.76667,-5.13333c0,-2.83506 2.13411,-5.13333 4.76667,-5.13333z" stroke="none"/><path d="M272.31429,139.0981c2.63256,0 4.76667,2.29826 4.76667,5.13333c0,2.83506 -2.13411,5.13333 -4.76667,5.13333c-2.63256,0 -4.76667,-2.29826 -4.76667,-5.13333c0,-2.83506 2.13411,-5.13333 4.76667,-5.13333z" stroke="none"/><path d="M167.9,176.41c0,0.7732 -0.58203,1.4 -1.3,1.4c-0.71797,0 -1.3,-0.6268 -1.3,-1.4c0,-0.7732 0.58203,-1.4 1.3,-1.4c0.71797,0 1.3,0.6268 1.3,1.4z" stroke="none"/></g></g></svg>