<svg version="1.1" xmlns="http://www.w3.org/2000/svg" xmlns:xlink="http://www.w3.org/1999/xlink" width="69.18735" height="68.50906" viewBox="0,0,69.18735,68.50906"><g transform="translate(-205.40634,-145.74547)"><g data-paper-data="{&quot;isPaintingLayer&quot;:true}" stroke-miterlimit="10" stroke-dasharray="" stroke-dashoffset="0" style="mix-blend-mode: normal"><path d="M274.5937,180c0,18.91825 -15.48811,34.25453 -34.59368,34.25453c-19.10556,0 -34.59367,-15.33627 -34.59367,-34.25453c0,-18.91825 15.48811,-34.25453 34.59367,-34.25453c19.10556,0 34.59368,15.33628 34.59368,34.25453z" fill="#efefef" fill-rule="nonzero" stroke="none" stroke-width="0" stroke-linecap="butt" stroke-linejoin="miter"/><path d="M248.20584,183.85103c-3.05196,3.05196 -5.30079,4.61809 -7.06772,5.22046c-0.52205,-1.60629 -1.4055,-3.09212 -2.65038,-4.33701c-1.28504,-1.24488 -2.77087,-2.12834 -4.37716,-2.69054c0.64252,-1.76692 2.20867,-4.01574 5.22048,-7.02754c7.22833,-7.2685 20.07868,-16.14328 22.52828,-13.69368c2.4496,2.4496 -6.42516,15.29996 -13.65349,22.5283zM234.88073,197.22171c-1.19505,1.15465 -2.73708,1.7506 -4.27907,1.8251v0.03725h-0.3855c-10.33142,0.37247 -14.84178,-11.32303 -11.29518,-10.09389c4.66456,1.60161 6.55737,-0.70769 6.63062,-0.78218c2.58285,-2.45829 6.74628,-2.45829 9.32913,0c2.58285,2.49553 2.58285,6.55544 0,9.01373z" fill="#a3e339" fill-rule="evenodd" stroke="#a3e339" stroke-width="2.5" stroke-linecap="round" stroke-linejoin="round"/></g></g></svg>