<svg version="1.1" xmlns="http://www.w3.org/2000/svg" xmlns:xlink="http://www.w3.org/1999/xlink" width="107.64686" height="31.07068" viewBox="0,0,107.64686,31.07068"><defs><linearGradient x1="239.3738" y1="164.46466" x2="239.3738" y2="195.53534" gradientUnits="userSpaceOnUse" id="color-1"><stop offset="0" stop-color="#1a1a1a" stop-opacity="0"/><stop offset="1" stop-color="#1a1a1a"/></linearGradient></defs><g transform="translate(-185.55037,-164.46466)"><g data-paper-data="{&quot;isPaintingLayer&quot;:true}" fill-rule="nonzero" stroke-linecap="butt" stroke-linejoin="miter" stroke-miterlimit="10" stroke-dasharray="" stroke-dashoffset="0" style="mix-blend-mode: normal"><path d="M185.55037,191.4658c0,-3.69741 0,-16.57734 0,-23.02016c0,-2.15343 1.95837,-3.98098 5.33755,-3.98098c19.53563,0 86.55734,0 97.19571,0c2.78673,0 5.1136,2.60206 5.1136,4.86638c0,3.6837 0,15.05988 0,21.47073c0,2.69477 -1.87835,4.51222 -4.21778,4.51222c-10.31196,0 -84.21543,0.22135 -100.33106,0.22135c-1.98925,0 -3.09802,-2.20715 -3.09802,-4.06952z" fill="url(#color-1)" stroke="none" stroke-width="4"/><text transform="translate(214.16749,184.80456) scale(0.40038,0.40038)" font-size="40" xml:space="preserve" fill="#a1e338" fill-rule="nonzero" stroke="none" stroke-width="1" stroke-linecap="butt" stroke-linejoin="miter" stroke-miterlimit="10" stroke-dasharray="" stroke-dashoffset="0" font-family="Malgun Gothic" font-weight="normal" text-anchor="start" style="mix-blend-mode: normal"><tspan x="0" dy="0">Restart</tspan></text><path d="M207.97221,179.91193c0,4.86159 -3.77222,8.80269 -8.42549,8.80269c-4.65327,0 -8.42549,-3.9411 -8.42549,-8.80269c0,-4.86159 3.77222,-8.80269 8.42549,-8.80269c4.65327,0 8.42549,3.9411 8.42549,8.80269z" fill="none" stroke="#a1e338" stroke-width="2.5"/></g></g></svg>