<svg version="1.1" xmlns="http://www.w3.org/2000/svg" xmlns:xlink="http://www.w3.org/1999/xlink" width="719.71772" height="451.26626" viewBox="0,0,719.71772,451.26626"><g transform="translate(119.35886,3.63919)"><g data-paper-data="{&quot;isPaintingLayer&quot;:true}" fill-rule="nonzero" stroke-linejoin="miter" stroke-miterlimit="10" stroke-dasharray="" stroke-dashoffset="0" style="mix-blend-mode: normal"><path d="M-5.5,364.36081v-368h492v368z" fill="#1b1b1b" stroke="none" stroke-width="0" stroke-linecap="butt"/><path d="M-118.35886,445.12557l717.71772,1.5015" fill="none" stroke="#000000" stroke-width="2" stroke-linecap="round"/><path d="M260.70528,180.00803c0,10.86857 -9.22744,19.67928 -20.61005,19.67928c-11.38262,0 -20.61005,-8.81071 -20.61005,-19.67928c0,-10.86857 9.22744,-19.67928 20.61005,-19.67928c11.38262,0 20.61005,8.81071 20.61005,19.67928z" fill="none" stroke="#0052d9" stroke-width="5" stroke-linecap="butt"/><path d="M233.79298,162.87884v-9.93816h12.6045v9.93816z" fill="#0052d9" stroke="none" stroke-width="0" stroke-linecap="butt"/><path d="M222.95001,171.55567l-7.11816,-8.56816l10.86693,-9.02791l7.11816,8.56816z" fill="#0052d9" stroke="none" stroke-width="0" stroke-linecap="butt"/><path d="M259.48676,187.11825v-13.08928h8.4838v13.08928z" fill="#0052d9" stroke="none" stroke-width="0" stroke-linecap="butt"/><path d="M259.60987,171.11962l-10.98347,-10.58648l6.61655,-6.86467l10.98347,10.58648z" fill="#0052d9" stroke="none" stroke-width="0" stroke-linecap="butt"/><path d="M235.00495,206.99457v-7.75661h11.87731v7.75661z" fill="#0052d9" stroke="none" stroke-width="0" stroke-linecap="butt"/><path d="M255.33205,204.42016l-6.37782,-6.9006l10.56654,-9.76604l6.37782,6.9006z" fill="#0052d9" stroke="none" stroke-width="0" stroke-linecap="butt"/><path d="M211.26121,174.22368l7.75526,-0.14496l0.22197,11.87524l-7.75526,0.14496z" fill="#0052d9" stroke="none" stroke-width="0" stroke-linecap="butt"/><path d="M214.99345,193.48916l7.45978,-6.22744l9.53576,11.42279l-7.45978,6.22744z" fill="#0052d9" stroke="none" stroke-width="0" stroke-linecap="butt"/><path d="M-5.5,364.36082v-368h492v368z" fill="#1b1b1b" stroke="none" stroke-width="0" stroke-linecap="butt"/><path d="M207.47501,207.4316c0,-14.02782 0,-46.74866 0,-54.59618c0,-3.307 4.36895,-6.69792 8.41607,-6.69792c7.63404,0 34.08638,0.05697 47.87455,0.08787c5.13185,0.0115 8.50937,3.42501 8.50937,6.82458c0,7.72152 0.25,39.88938 0.25,54.38165c0,4.58137 -3.1926,6.4309 -7.75893,6.4309c-13.50269,0 -41.20308,0 -49,0c-3.99654,0 -8.29107,-2.47044 -8.29107,-6.4309z" fill="#1a1a1a" stroke="#1a1a1a" stroke-width="4" stroke-linecap="butt"/></g></g></svg>