<svg version="1.1" xmlns="http://www.w3.org/2000/svg" xmlns:xlink="http://www.w3.org/1999/xlink" width="709.20721" height="448.18191" viewBox="0,0,709.20721,448.18191"><g transform="translate(114.6036,2.45)"><g data-paper-data="{&quot;isPaintingLayer&quot;:true}" fill-rule="nonzero" stroke-linejoin="miter" stroke-miterlimit="10" stroke-dasharray="" stroke-dashoffset="0" style="mix-blend-mode: normal"><path d="M-4.25,360.55v-363h491.31492v363z" fill="#ffffff" stroke="#000000" stroke-width="0" stroke-linecap="butt"/><path d="M-113.6036,444.73191h707.20721" fill="none" stroke="#000000" stroke-width="2" stroke-linecap="round"/><path d="M207.475,207.4316c0,-14.02782 0,-46.74866 0,-54.59618c0,-3.307 4.36895,-6.69792 8.41607,-6.69792c7.63404,0 34.08638,0.05697 47.87455,0.08787c5.13185,0.0115 8.50937,3.42501 8.50937,6.82458c0,7.72152 0.25,39.88938 0.25,54.38165c0,4.58137 -3.1926,6.4309 -7.75893,6.4309c-13.50269,0 -41.20308,0 -49,0c-3.99654,0 -8.29107,-2.47044 -8.29107,-6.4309z" fill="#ffffff" stroke="#ffffff" stroke-width="4" stroke-linecap="butt"/><path d="M225.47089,206.00443v-10.46096h38.5893v10.46096z" fill="#a1e338" stroke="#a1e338" stroke-width="2.5" stroke-linecap="butt"/><path d="M242.20842,166.9502c0,5.39226 -4.52741,9.76356 -10.11226,9.76356c-5.58485,0 -10.11226,-4.37129 -10.11226,-9.76356c0,-5.39226 4.52741,-9.76356 10.11226,-9.76356c5.58485,0 10.11226,4.37129 10.11226,9.76356z" fill="#a1e338" stroke="#a1e338" stroke-width="2.5" stroke-linecap="butt"/><path d="M230.58514,182.29294l4.41685,5.57918" fill="none" stroke="#a1e338" stroke-width="2.5" stroke-linecap="round"/><path d="M240.81363,186.24485l-3.48699,-4.82813" fill="none" stroke="#a1e338" stroke-width="2.5" stroke-linecap="round"/><path d="M242.44089,178.22078l3.95192,4.76955" fill="none" stroke="#a1e338" stroke-width="2.5" stroke-linecap="round"/><path d="M245.43745,172.276l6.0951,6.83187" fill="none" stroke="#a1e338" stroke-width="2.5" stroke-linecap="round"/><text transform="translate(193.625,228.95072) scale(0.5,0.5)" font-size="40" xml:space="preserve" fill="#a1e338" fill-rule="nonzero" stroke="none" stroke-width="1" stroke-linecap="butt" stroke-linejoin="miter" stroke-miterlimit="10" stroke-dasharray="" stroke-dashoffset="0" font-family="Malgun Gothic" font-weight="normal" text-anchor="start" style="mix-blend-mode: normal"><tspan x="0" dy="0">Pong Game</tspan></text></g></g></svg>