<svg version="1.1" xmlns="http://www.w3.org/2000/svg" xmlns:xlink="http://www.w3.org/1999/xlink" width="119.55133" height="49.07005" viewBox="0,0,119.55133,49.07005"><defs><linearGradient x1="149.68905" y1="287.1418" x2="149.68905" y2="336.21189" gradientUnits="userSpaceOnUse" id="color-1"><stop offset="0" stop-color="#1a1a1a" stop-opacity="0"/><stop offset="1" stop-color="#1a1a1a"/></linearGradient></defs><g transform="translate(-89.91338,-287.14181)"><g data-paper-data="{&quot;isPaintingLayer&quot;:true}" fill-rule="nonzero" stroke="none" stroke-linecap="butt" stroke-linejoin="miter" stroke-miterlimit="10" stroke-dasharray="" stroke-dashoffset="0" style="mix-blend-mode: normal"><path d="M89.91338,327.64072c0,-6.07874 0,-24.15412 0,-33.86278c0,-3.81173 3.08679,-6.63613 6.42527,-6.63613c11.99973,0 83.4882,0.2128 106.20275,0.28135c4.36028,0.01316 6.92331,3.6437 6.92331,8.77355c0,10.13929 0,26.16652 0,31.74635c0,3.79689 -3.09493,8.2688 -6.67398,8.2688c-12.57652,0 -86.06958,0 -107.19823,0c-3.59939,0 -5.6791,-4.66211 -5.6791,-8.57114z" fill="url(#color-1)" stroke-width="0"/><text transform="translate(98.94065,318.27187) scale(0.52167,0.52167)" font-size="40" xml:space="preserve" fill="#a7e23a" fill-rule="nonzero" stroke="none" stroke-width="1" stroke-linecap="butt" stroke-linejoin="miter" stroke-miterlimit="10" stroke-dasharray="" stroke-dashoffset="0" font-family="Malgun Gothic" font-weight="normal" text-anchor="start" style="mix-blend-mode: normal"><tspan x="0" dy="0">Stop Music</tspan></text></g></g></svg>