<svg version="1.1" xmlns="http://www.w3.org/2000/svg" xmlns:xlink="http://www.w3.org/1999/xlink" width="77.00623" height="31.60734" viewBox="0,0,77.00623,31.60734"><defs><linearGradient x1="226.29117" y1="262.42737" x2="226.29117" y2="294.03472" gradientUnits="userSpaceOnUse" id="color-1"><stop offset="0" stop-color="#1a1a1a" stop-opacity="0"/><stop offset="1" stop-color="#1a1a1a"/></linearGradient></defs><g transform="translate(-187.78805,-262.42737)"><g data-paper-data="{&quot;isPaintingLayer&quot;:true}" fill-rule="nonzero" stroke="none" stroke-linecap="butt" stroke-linejoin="miter" stroke-miterlimit="10" stroke-dasharray="" stroke-dashoffset="0" style="mix-blend-mode: normal"><path d="M187.78806,288.51381c0,-3.91548 0,-15.55831 0,-21.81192c0,-2.45524 1.98828,-4.27451 4.13869,-4.27451c7.72935,0 53.777,0.13708 68.40806,0.18123c2.80857,0.00848 4.45948,2.347 4.45948,5.65128c0,6.53098 0,16.85456 0,20.44867c0,2.44569 -1.99354,5.32616 -4.2989,5.32616c-8.10087,0 -55.43972,0 -69.04926,0c-2.31847,0 -3.65806,-3.00299 -3.65806,-5.52091z" fill="url(#color-1)" stroke-width="0"/><text transform="translate(194.14181,274.94868) scale(0.2248,0.2248)" font-size="40" xml:space="preserve" fill="#a9e43a" fill-rule="nonzero" stroke="none" stroke-width="1" stroke-linecap="butt" stroke-linejoin="miter" stroke-miterlimit="10" stroke-dasharray="" stroke-dashoffset="0" font-family="Sans Serif" font-weight="normal" text-anchor="start" style="mix-blend-mode: normal"><tspan x="0" dy="0">         Open </tspan><tspan x="0" dy="46.15px">Aditya OS Java</tspan></text></g></g></svg>