<svg version="1.1" xmlns="http://www.w3.org/2000/svg" xmlns:xlink="http://www.w3.org/1999/xlink" width="84.06061" height="34.50282" viewBox="0,0,84.06061,34.50282"><defs><linearGradient x1="44.382" y1="247.42736" x2="44.382" y2="281.93021" gradientUnits="userSpaceOnUse" id="color-1"><stop offset="0" stop-color="#1a1a1a" stop-opacity="0"/><stop offset="1" stop-color="#1a1a1a"/></linearGradient></defs><g transform="translate(-2.35168,-247.42737)"><g data-paper-data="{&quot;isPaintingLayer&quot;:true}" fill-rule="nonzero" stroke="none" stroke-linecap="butt" stroke-linejoin="miter" stroke-miterlimit="10" stroke-dasharray="" stroke-dashoffset="0" style="mix-blend-mode: normal"><path d="M2.35168,275.90353c0,-4.27417 0,-16.98359 0,-23.81007c0,-2.68016 2.17042,-4.66609 4.51783,-4.66609c8.43742,0 58.70339,0.14963 74.67476,0.19783c3.06585,0.00925 4.86802,2.562 4.86802,6.16898c0,7.12928 0,18.39858 0,22.32194c0,2.66973 -2.17615,5.81407 -4.6927,5.81407c-8.84297,0 -60.51845,0 -75.37472,0c-2.53085,0 -3.99316,-3.27809 -3.99316,-6.02666z" fill="url(#color-1)" stroke-width="0"/><text transform="translate(11.5116,271.42537) scale(0.36681,0.36681)" font-size="40" xml:space="preserve" fill="#a7e23a" fill-rule="nonzero" stroke="none" stroke-width="1" stroke-linecap="butt" stroke-linejoin="miter" stroke-miterlimit="10" stroke-dasharray="" stroke-dashoffset="0" font-family="Malgun Gothic" font-weight="normal" text-anchor="start" style="mix-blend-mode: normal"><tspan x="0" dy="0">Download</tspan></text></g></g></svg>