<svg version="1.1" xmlns="http://www.w3.org/2000/svg" xmlns:xlink="http://www.w3.org/1999/xlink" width="719.71772" height="451.26626" viewBox="0,0,719.71772,451.26626"><g transform="translate(114.35886,-1.36081)"><g data-paper-data="{&quot;isPaintingLayer&quot;:true}" fill-rule="nonzero" stroke-linejoin="miter" stroke-miterlimit="10" stroke-dasharray="" stroke-dashoffset="0" style="mix-blend-mode: normal"><path d="M-0.5,369.36082v-368h492v368z" fill="#1b1b1b" stroke="none" stroke-width="0" stroke-linecap="butt"/><path d="M-113.35886,450.12558l717.71772,1.5015" fill="none" stroke="#000000" stroke-width="2" stroke-linecap="round"/><path d="M265.70528,185.00804c0,10.86857 -9.22744,19.67928 -20.61005,19.67928c-11.38262,0 -20.61005,-8.81071 -20.61005,-19.67928c0,-10.86857 9.22744,-19.67928 20.61005,-19.67928c11.38262,0 20.61005,8.81071 20.61005,19.67928z" fill="none" stroke="#0052d9" stroke-width="5" stroke-linecap="butt"/><path d="M238.79298,167.87885v-9.93816h12.6045v9.93816z" fill="#0052d9" stroke="none" stroke-width="0" stroke-linecap="butt"/><path d="M227.95001,176.55568l-7.11816,-8.56816l10.86693,-9.02791l7.11816,8.56816z" fill="#0052d9" stroke="none" stroke-width="0" stroke-linecap="butt"/><path d="M264.48676,192.11826v-13.08928h8.4838v13.08928z" fill="#0052d9" stroke="none" stroke-width="0" stroke-linecap="butt"/><path d="M264.60987,176.11963l-10.98347,-10.58648l6.61655,-6.86467l10.98347,10.58648z" fill="#0052d9" stroke="none" stroke-width="0" stroke-linecap="butt"/><path d="M240.00495,211.99458v-7.75661h11.87731v7.75661z" fill="#0052d9" stroke="none" stroke-width="0" stroke-linecap="butt"/><path d="M260.33205,209.42017l-6.37782,-6.9006l10.56654,-9.76604l6.37782,6.9006z" fill="#0052d9" stroke="none" stroke-width="0" stroke-linecap="butt"/><path d="M216.26121,179.22369l7.75526,-0.14496l0.22197,11.87524l-7.75526,0.14496z" fill="#0052d9" stroke="none" stroke-width="0" stroke-linecap="butt"/><path d="M219.99345,198.48917l7.45978,-6.22744l9.53576,11.42279l-7.45978,6.22744z" fill="#0052d9" stroke="none" stroke-width="0" stroke-linecap="butt"/><path d="M-0.5,369.36083v-368h492v368z" fill="#1b1b1b" stroke="none" stroke-width="0" stroke-linecap="butt"/></g></g></svg>