<svg version="1.1" xmlns="http://www.w3.org/2000/svg" xmlns:xlink="http://www.w3.org/1999/xlink" width="64.55133" height="26.49521" viewBox="0,0,64.55133,26.49521"><defs><linearGradient x1="387.50004" y1="275.43498" x2="387.50004" y2="301.9302" gradientUnits="userSpaceOnUse" id="color-1"><stop offset="0" stop-color="#1a1a1a" stop-opacity="0"/><stop offset="1" stop-color="#1a1a1a"/></linearGradient></defs><g transform="translate(-355.22436,-275.43498)"><g data-paper-data="{&quot;isPaintingLayer&quot;:true}" fill-rule="nonzero" stroke="none" stroke-linecap="butt" stroke-linejoin="miter" stroke-miterlimit="10" stroke-dasharray="" stroke-dashoffset="0" style="mix-blend-mode: normal"><path d="M355.22437,297.30224c0,-3.2822 0,-13.04194 0,-18.28409c0,-2.05813 1.6667,-3.58316 3.4693,-3.58316c6.47921,0 45.07916,0.11491 57.34381,0.15192c2.35431,0.00711 3.73822,1.9674 3.73822,4.73725c0,5.47467 0,14.12852 0,17.14133c0,2.05012 -1.67109,4.4647 -3.60359,4.4647c-6.79064,0 -46.47297,0 -57.88131,0c-1.94348,0 -3.06641,-2.51729 -3.06641,-4.62795z" fill="url(#color-1)" stroke-width="0"/><text transform="translate(370.85486,295.25817) scale(0.36881,0.36881)" font-size="40" xml:space="preserve" fill="#a7e23a" fill-rule="nonzero" stroke="none" stroke-width="1" stroke-linecap="butt" stroke-linejoin="miter" stroke-miterlimit="10" stroke-dasharray="" stroke-dashoffset="0" font-family="Malgun Gothic" font-weight="normal" text-anchor="start" style="mix-blend-mode: normal"><tspan x="0" dy="0">Read</tspan></text></g></g></svg>