<svg version="1.1" xmlns="http://www.w3.org/2000/svg" xmlns:xlink="http://www.w3.org/1999/xlink" width="381.82719" height="516.01206" viewBox="0,0,381.82719,516.01206"><g transform="translate(114.85283,79.75777)"><g data-paper-data="{&quot;isPaintingLayer&quot;:true}" fill-rule="nonzero" stroke-linejoin="miter" stroke-miterlimit="10" stroke-dasharray="" stroke-dashoffset="0" style="mix-blend-mode: normal"><path d="M253.51353,432.75279l-22.52252,1.5015" fill="none" stroke="#000000" stroke-width="4" stroke-linecap="round"/><path d="M-112.85283,-77.75777l10.51051,1.5015" fill="none" stroke="#000000" stroke-width="4" stroke-linecap="round"/><path d="M214.80909,201.89759c0,-11.91292 0,-39.7006 0,-46.36499c0,-2.80843 3.36925,-5.68812 6.49031,-5.68812c5.88722,0 26.28673,0.04838 36.91991,0.07463c3.95758,0.00976 6.56225,2.90864 6.56225,5.79568c0,6.55738 0.1928,33.87545 0.1928,46.18281c0,3.89066 -2.46206,5.46135 -5.98353,5.46135c-10.41301,0 -31.775,0 -37.78782,0c-3.08205,0 -6.39391,-2.09798 -6.39391,-5.46135z" fill="#292929" stroke="#292929" stroke-width="4" stroke-linecap="butt"/><g fill="none" stroke="#a9e43a" stroke-width="2.5" stroke-linecap="round"><path d="M240.08083,168.85716l14.46462,-14.42857"/><path d="M225.32979,154.28572l14.46462,14.42858"/></g></g></g></svg>