<svg version="1.1" xmlns="http://www.w3.org/2000/svg" xmlns:xlink="http://www.w3.org/1999/xlink" width="736.73273" height="466.70858" viewBox="0,0,736.73273,466.70858"><defs><linearGradient x1="240.00003" y1="-11.63625" x2="240.00003" y2="40.36375" gradientUnits="userSpaceOnUse" id="color-1"><stop offset="0" stop-color="#191919"/><stop offset="1" stop-color="#333333"/></linearGradient></defs><g transform="translate(129.1171,11.63625)"><g data-paper-data="{&quot;isPaintingLayer&quot;:true}" fill-rule="nonzero" stroke-linecap="butt" stroke-linejoin="miter" stroke-miterlimit="10" stroke-dasharray="" stroke-dashoffset="0" style="mix-blend-mode: normal"><path d="M-14.24773,361.93939v-363.87838h508.4955v363.87838z" fill="#ffffff" stroke="#0052d9" stroke-width="0"/><path d="M-119.99999,40.36375v-52h720v52z" fill="url(#color-1)" stroke="none" stroke-width="0"/><path d="M-127.1171,453.07234v-2.93386h732.73273v2.93386z" fill="#202020" stroke="#00acff" stroke-width="4"/><text transform="translate(6.50002,26.62035) scale(0.60724,0.60724)" font-size="40" xml:space="preserve" fill="#a6e238" fill-rule="nonzero" stroke="none" stroke-width="1" stroke-linecap="butt" stroke-linejoin="miter" stroke-miterlimit="10" stroke-dasharray="" stroke-dashoffset="0" font-family="Malgun Gothic" font-weight="normal" text-anchor="start" style="mix-blend-mode: normal"><tspan x="0" dy="0">About</tspan></text><text transform="translate(8.06008,66.96705) scale(0.47214,0.47214)" font-size="40" xml:space="preserve" fill="#a6e238" fill-rule="nonzero" stroke="none" stroke-width="1" stroke-linecap="butt" stroke-linejoin="miter" stroke-miterlimit="10" stroke-dasharray="" stroke-dashoffset="0" font-family="Malgun Gothic" font-weight="normal" text-anchor="start" style="mix-blend-mode: normal"><tspan x="0" dy="0">This is an OS made by Mastered YT Aditya</tspan><tspan x="0" dy="46.150000000000006px">OS ver. : 2.1.0</tspan><tspan x="0" dy="46.150000000000006px">Developer's Website:</tspan><tspan x="0" dy="46.150000000000006px"> </tspan><tspan x="0" dy="46.150000000000006px">                   </tspan><tspan x="0" dy="46.150000000000006px"> </tspan><tspan x="0" dy="46.150000000000006px">Thanks for using Aditya OS!</tspan><tspan x="0" dy="46.150000000000006px"> </tspan><tspan x="0" dy="46.150000000000006px"> </tspan><tspan x="0" dy="46.150000000000006px">© MYTA Studios</tspan><tspan x="0" dy="46.150000000000006px">© Delta Bolt Corporation</tspan></text><path d="M391.33334,26.44155c0,-2.6593 0,-8.05523 0,-9.8c0,-1.32145 1.02862,-2.22221 1.96546,-2.22221c1.65564,0 7.11697,0 10.2,0c1.29314,0 2.16787,1.06668 2.16787,2.02221c0,1.69742 0,7.29835 0,10.2c0,1.07369 -0.91078,1.77779 -1.76787,1.77779c-1.72849,0 -8.032,0 -11,0c-0.95563,0 -1.56546,-0.79846 -1.56546,-1.97779z" fill="#a7e338" stroke="#a7e338" stroke-width="2.5"/><path d="M411.33333,26.44155c0,-2.6593 0,-8.05523 0,-9.8c0,-1.32145 1.02863,-2.22221 1.96547,-2.22221c1.65564,0 7.11697,0 10.2,0c1.29314,0 2.16787,1.06668 2.16787,2.02221c0,1.69741 0,7.29835 0,10.2c0,1.07368 -0.91078,1.77779 -1.76787,1.77779c-1.7285,0 -8.03201,0 -11,0c-0.95562,0 -1.56547,-0.79845 -1.56547,-1.97779z" fill="#101010" stroke="#101010" stroke-width="2.5"/></g></g></svg>