<svg version="1.1" xmlns="http://www.w3.org/2000/svg" xmlns:xlink="http://www.w3.org/1999/xlink" width="47.5155" height="19.50282" viewBox="0,0,47.5155,19.50282"><defs><linearGradient x1="454.01795" y1="287.42737" x2="454.01795" y2="306.9302" gradientUnits="userSpaceOnUse" id="color-1"><stop offset="0" stop-color="#1a1a1a" stop-opacity="0"/><stop offset="1" stop-color="#1a1a1a"/></linearGradient></defs><g transform="translate(-430.26019,-287.42737)"><g data-paper-data="{&quot;isPaintingLayer&quot;:true}" fill-rule="nonzero" stroke="none" stroke-linecap="butt" stroke-linejoin="miter" stroke-miterlimit="10" stroke-dasharray="" stroke-dashoffset="0" style="mix-blend-mode: normal"><path d="M430.26019,303.5236c0,-2.41598 0,-9.60002 0,-13.45871c0,-1.51497 1.22684,-2.63752 2.55371,-2.63752c4.76927,0 33.18227,0.08458 42.21013,0.11183c1.73298,0.00523 2.75166,1.44818 2.75166,3.48703c0,4.02985 0,10.39985 0,12.61754c0,1.50907 -1.23007,3.28642 -2.65256,3.28642c-4.99851,0 -34.20823,0 -42.60578,0c-1.43057,0 -2.25715,-1.85295 -2.25715,-3.40659z" fill="url(#color-1)" stroke-width="0"/><text transform="translate(439.66594,300.87906) scale(0.26711,0.26711)" font-size="40" xml:space="preserve" fill="#a7e23a" fill-rule="nonzero" stroke="none" stroke-width="1" stroke-linecap="butt" stroke-linejoin="miter" stroke-miterlimit="10" stroke-dasharray="" stroke-dashoffset="0" font-family="Malgun Gothic" font-weight="normal" text-anchor="start" style="mix-blend-mode: normal"><tspan x="0" dy="0">Open</tspan></text></g></g></svg>