<svg version="1.1" xmlns="http://www.w3.org/2000/svg" xmlns:xlink="http://www.w3.org/1999/xlink" width="753.24775" height="462.16008" viewBox="0,0,753.24775,462.16008"><g transform="translate(121.60886,12.78301)"><g data-paper-data="{&quot;isPaintingLayer&quot;:true}" fill-rule="nonzero" stroke-linejoin="miter" stroke-miterlimit="10" stroke-dasharray="" stroke-dashoffset="0" style="mix-blend-mode: normal"><path d="M-21.44545,372.78301v-385.56602h522.89091v385.56602z" fill="#ffffff" stroke="none" stroke-width="0" stroke-linecap="butt"/><path d="M628.88889,446.62707h-747.74775" fill="none" stroke="#0052d9" stroke-width="5.5" stroke-linecap="round"/><path d="M231.1663,191.84567c0,0 0.19242,-24.21431 0.23177,-29.21361c0.01345,-1.70817 1.77246,-3.67021 3.37145,-3.67021c3.06421,0 13.77861,0 18.82972,0c1.63244,0 2.67336,1.3256 2.67336,2.7431c0,4.88602 0,32.59169 0,32.59169" fill="none" stroke="#ff0000" stroke-width="2.5" stroke-linecap="round"/><path d="M256.2726,194.74794c0,3.0171 -2.49788,5.46294 -5.57918,5.46294c-3.08129,0 -5.57918,-2.44584 -5.57918,-5.46294c0,-3.0171 2.49788,-5.46294 5.57918,-5.46294c3.08129,0 5.57918,2.44584 5.57918,5.46294z" fill="#ff0000" stroke="#ff0000" stroke-width="2.5" stroke-linecap="butt"/><path d="M231.1663,193.94794c0,3.0171 -2.44584,5.46294 -5.46294,5.46294c-3.0171,0 -5.46294,-2.44584 -5.46294,-5.46294c0,-3.0171 2.44584,-5.46294 5.46294,-5.46294c3.0171,0 5.46294,2.44584 5.46294,5.46294z" fill="#ff0000" stroke="#ff0000" stroke-width="2.5" stroke-linecap="butt"/><text transform="translate(82.23724,229.18891) scale(0.5,0.5)" font-size="40" xml:space="preserve" fill="#ff0000" fill-rule="nonzero" stroke="none" stroke-width="1" stroke-linecap="butt" stroke-linejoin="miter" stroke-miterlimit="10" stroke-dasharray="" stroke-dashoffset="0" font-family="Malgun Gothic" font-weight="normal" text-anchor="start" style="mix-blend-mode: normal"><tspan x="0" dy="0">Cannot open AT Music.app when</tspan><tspan x="0" dy="46.150000000000006px">Sound is disabled</tspan><tspan x="0" dy="46.150000000000006px">Error code:</tspan><tspan x="0" dy="46.150000000000006px">sound_0_app5</tspan></text></g></g></svg>