<svg version="1.1" xmlns="http://www.w3.org/2000/svg" xmlns:xlink="http://www.w3.org/1999/xlink" width="381.70629" height="516.01206" viewBox="0,0,381.70629,516.01206"><g transform="translate(114.85283,79.75777)"><g data-paper-data="{&quot;isPaintingLayer&quot;:true}" fill-rule="nonzero" stroke-linejoin="miter" stroke-miterlimit="10" stroke-dasharray="" stroke-dashoffset="0" style="mix-blend-mode: normal"><path d="M253.51353,432.75279l-22.52252,1.5015" fill="none" stroke="#000000" stroke-width="4" stroke-linecap="round"/><path d="M-112.85283,-77.75777l10.51051,1.5015" fill="none" stroke="#000000" stroke-width="4" stroke-linecap="round"/><path d="M214.89654,203.29587c0,-11.91292 0,-39.7006 0,-46.36499c0,-2.80843 3.35526,-5.68812 6.46335,-5.68812c5.86277,0 26.17757,0.04838 36.76657,0.07463c3.94114,0.00976 6.535,2.90864 6.535,5.79568c0,6.55738 0.192,33.87545 0.192,46.18281c0,3.89066 -2.45184,5.46135 -5.95868,5.46135c-10.36976,0 -31.64303,0 -37.63089,0c-3.06925,0 -6.36735,-2.09798 -6.36735,-5.46135z" fill="#292929" stroke="#292929" stroke-width="4" stroke-linecap="butt"/><g fill="none" stroke="#a9e43a" stroke-width="2.5" stroke-linecap="round"><path d="M225.42857,168.71431l14.42857,-14.42857"/><path d="M254.57143,168.85714l-14.42857,-14.42857"/></g></g></g></svg>