<svg version="1.1" xmlns="http://www.w3.org/2000/svg" xmlns:xlink="http://www.w3.org/1999/xlink" width="78.13356" height="32.07005" viewBox="0,0,78.13356,32.07005"><defs><linearGradient x1="137.29117" y1="260.42737" x2="137.29117" y2="292.49744" gradientUnits="userSpaceOnUse" id="color-1"><stop offset="0" stop-color="#1a1a1a" stop-opacity="0"/><stop offset="1" stop-color="#1a1a1a"/></linearGradient></defs><g transform="translate(-98.22438,-260.42737)"><g data-paper-data="{&quot;isPaintingLayer&quot;:true}" fill-rule="nonzero" stroke="none" stroke-linecap="butt" stroke-linejoin="miter" stroke-miterlimit="10" stroke-dasharray="" stroke-dashoffset="0" style="mix-blend-mode: normal"><path d="M98.22439,286.89569c0,-3.9728 0,-15.78607 0,-22.13124c0,-2.49118 2.0174,-4.33709 4.19928,-4.33709c7.84251,0 54.56425,0.13908 69.4095,0.18388c2.84968,0.0086 4.52478,2.38137 4.52478,5.73401c0,6.6266 0,17.1013 0,20.74803c0,2.48148 -2.02272,5.40413 -4.36183,5.40413c-8.21946,0 -56.25133,0 -70.06009,0c-2.35241,0 -3.71161,-3.04696 -3.71161,-5.60173z" fill="url(#color-1)" stroke-width="0"/><text transform="translate(104.67116,273.13198) scale(0.22809,0.22809)" font-size="40" xml:space="preserve" fill="#a9e43a" fill-rule="nonzero" stroke="none" stroke-width="1" stroke-linecap="butt" stroke-linejoin="miter" stroke-miterlimit="10" stroke-dasharray="" stroke-dashoffset="0" font-family="Sans Serif" font-weight="normal" text-anchor="start" style="mix-blend-mode: normal"><tspan x="0" dy="0">         Open </tspan><tspan x="0" dy="46.15px">Aditya OS Flash</tspan></text></g></g></svg>