<svg version="1.1" xmlns="http://www.w3.org/2000/svg" xmlns:xlink="http://www.w3.org/1999/xlink" width="717.21171" height="452.51476" viewBox="0,0,717.21171,452.51476"><g transform="translate(120.60736,5.13919)"><g data-paper-data="{&quot;isPaintingLayer&quot;:true}" fill-rule="nonzero" stroke-linejoin="miter" stroke-miterlimit="10" stroke-dasharray="" stroke-dashoffset="0" style="mix-blend-mode: normal"><path d="M-6.5,364.86081v-370h492v370z" fill="#1b1b1b" stroke="none" stroke-width="0" stroke-linecap="butt"/><path d="M-117.85736,444.62557h711.71171" fill="none" stroke="#0052d9" stroke-width="5.5" stroke-linecap="round"/><path d="M207.47501,207.4316c0,-14.02782 0,-46.74866 0,-54.59618c0,-3.307 4.36895,-6.69792 8.41607,-6.69792c7.63404,0 34.08638,0.05697 47.87455,0.08787c5.13185,0.0115 8.50937,3.42501 8.50937,6.82458c0,7.72152 0.25,39.88938 0.25,54.38165c0,4.58137 -3.1926,6.4309 -7.75893,6.4309c-13.50269,0 -41.20308,0 -49,0c-3.99654,0 -8.29107,-2.47044 -8.29107,-6.4309z" fill="#1a1a1a" stroke="#1a1a1a" stroke-width="4" stroke-linecap="butt"/><path d="M218.84562,183.9744c0,-2.89102 0,-17.61976 0,-22.95958c0,-1.20903 0.55868,-1.93674 1.54513,-1.93674c6.81791,0 34.07002,0 38.52873,0c1.20529,0 2.23489,0.64907 2.23489,1.73966c0,5.16435 0,20.22925 0,23.15665c0,0.96317 -0.59566,1.83724 -1.64366,1.83724c-7.16356,0 -35.46194,0 -39.11996,0c-0.7607,0 -1.54513,-0.87406 -1.54513,-1.83724z" fill="#1a1a1a" stroke="#0052d9" stroke-width="4" stroke-linecap="butt"/><path d="M238.60521,200.45698v-14.18041h2.09219v14.18041z" fill="none" stroke="#0052d9" stroke-width="4" stroke-linecap="butt"/><path d="M224.65727,203.0141v-1.67878c0,0 7.83911,-0.90911 12.25265,-1.0701c1.73794,-0.06339 2.79953,0.16316 5.39207,0.0686c5.60825,-0.20457 12.80827,1.16019 12.80827,1.16019v1.52009z" fill="none" stroke="#0052d9" stroke-width="4" stroke-linecap="butt"/><text transform="translate(235.23445,182.43589) scale(0.57801,0.57801)" font-size="40" xml:space="preserve" fill="#0052d9" fill-rule="nonzero" stroke="none" stroke-width="1" stroke-linecap="butt" stroke-linejoin="miter" stroke-miterlimit="10" stroke-dasharray="" stroke-dashoffset="0" font-family="Sans Serif" font-weight="normal" text-anchor="start" style="mix-blend-mode: normal"><tspan x="0" dy="0">?</tspan></text><path d="M-5.5,364.36082v-368h492v368z" fill="#1b1b1b" stroke="none" stroke-width="0" stroke-linecap="butt"/><path d="M207.47501,207.4316c0,-14.02782 0,-46.74866 0,-54.59618c0,-3.307 4.36895,-6.69792 8.41607,-6.69792c7.63404,0 34.08638,0.05697 47.87455,0.08787c5.13185,0.0115 8.50937,3.42501 8.50937,6.82458c0,7.72152 0.25,39.88938 0.25,54.38165c0,4.58137 -3.1926,6.4309 -7.75893,6.4309c-13.50269,0 -41.20308,0 -49,0c-3.99654,0 -8.29107,-2.47044 -8.29107,-6.4309z" fill="#1a1a1a" stroke="#1a1a1a" stroke-width="4" stroke-linecap="butt"/></g></g></svg>