<svg version="1.1" xmlns="http://www.w3.org/2000/svg" xmlns:xlink="http://www.w3.org/1999/xlink" width="489" height="367" viewBox="0,0,489,367"><g transform="translate(4.5,7)"><g data-paper-data="{&quot;isPaintingLayer&quot;:true}" fill-rule="nonzero" stroke="none" stroke-width="0" stroke-linecap="butt" stroke-linejoin="miter" stroke-miterlimit="10" stroke-dasharray="" stroke-dashoffset="0" style="mix-blend-mode: normal"><path d="M-4.5,360v-367h489v367h-190.58843c-3.00931,-0.91882 -6.84496,-0.44983 -10.39792,0z" fill="#000000"/><path d="M236.9,169.66c0,0.7732 -0.58203,1.4 -1.3,1.4c-0.71797,0 -1.3,-0.6268 -1.3,-1.4c0,-0.7732 0.58203,-1.4 1.3,-1.4c0.71797,0 1.3,0.6268 1.3,1.4z" fill="#000000"/><path d="M70.9,48.66c0,0.7732 -0.58203,1.4 -1.3,1.4c-0.71797,0 -1.3,-0.6268 -1.3,-1.4c0,-0.7732 0.58203,-1.4 1.3,-1.4c0.71797,0 1.3,0.6268 1.3,1.4z" fill="#000000"/><path d="M89.9,277.66c0,0.7732 -0.58203,1.4 -1.3,1.4c-0.71797,0 -1.3,-0.6268 -1.3,-1.4c0,-0.7732 0.58203,-1.4 1.3,-1.4c0.71797,0 1.3,0.6268 1.3,1.4z" fill="#000000"/><path d="M366.9,247.66c0,0.7732 -0.58203,1.4 -1.3,1.4c-0.71797,0 -1.3,-0.6268 -1.3,-1.4c0,-0.7732 0.58203,-1.4 1.3,-1.4c0.71797,0 1.3,0.6268 1.3,1.4z" fill="#000000"/><path d="M243.9,296.66c0,0.7732 -0.58203,1.4 -1.3,1.4c-0.71797,0 -1.3,-0.6268 -1.3,-1.4c0,-0.7732 0.58203,-1.4 1.3,-1.4c0.71797,0 1.3,0.6268 1.3,1.4z" fill="#000000"/><path d="M183.4,133.66c0,0.7732 -0.58203,1.4 -1.3,1.4c-0.71797,0 -1.3,-0.6268 -1.3,-1.4c0,-0.7732 0.58203,-1.4 1.3,-1.4c0.71797,0 1.3,0.6268 1.3,1.4z" fill="#000000"/><path d="M63.4,152.66c0,0.7732 -0.58203,1.4 -1.3,1.4c-0.71797,0 -1.3,-0.6268 -1.3,-1.4c0,-0.7732 0.58203,-1.4 1.3,-1.4c0.71797,0 1.3,0.6268 1.3,1.4z" fill="#000000"/><path d="M187.4,181.66c0,0.7732 -0.58203,1.4 -1.3,1.4c-0.71797,0 -1.3,-0.6268 -1.3,-1.4c0,-0.7732 0.58203,-1.4 1.3,-1.4c0.71797,0 1.3,0.6268 1.3,1.4z" fill="#000000"/><path d="M379.4,275.66c0,0.7732 -0.58203,1.4 -1.3,1.4c-0.71797,0 -1.3,-0.6268 -1.3,-1.4c0,-0.7732 0.58203,-1.4 1.3,-1.4c0.71797,0 1.3,0.6268 1.3,1.4z" fill="#000000"/><path d="M403.4,44.66c0,0.7732 -0.58203,1.4 -1.3,1.4c-0.71797,0 -1.3,-0.6268 -1.3,-1.4c0,-0.7732 0.58203,-1.4 1.3,-1.4c0.71797,0 1.3,0.6268 1.3,1.4z" fill="#000000"/><path d="M330.4,19.66c0,0.7732 -0.58203,1.4 -1.3,1.4c-0.71797,0 -1.3,-0.6268 -1.3,-1.4c0,-0.7732 0.58203,-1.4 1.3,-1.4c0.71797,0 1.3,0.6268 1.3,1.4z" fill="#000000"/><path d="M285.65,153.16c0,0.7732 -0.58203,1.4 -1.3,1.4c-0.71797,0 -1.3,-0.6268 -1.3,-1.4c0,-0.7732 0.58203,-1.4 1.3,-1.4c0.71797,0 1.3,0.6268 1.3,1.4z" fill="#000000"/><path d="M427.65,105.16c0,0.7732 -0.58203,1.4 -1.3,1.4c-0.71797,0 -1.3,-0.6268 -1.3,-1.4c0,-0.7732 0.58203,-1.4 1.3,-1.4c0.71797,0 1.3,0.6268 1.3,1.4z" fill="#000000"/><path d="M243.65,67.16c0,0.7732 -0.58203,1.4 -1.3,1.4c-0.71797,0 -1.3,-0.6268 -1.3,-1.4c0,-0.7732 0.58203,-1.4 1.3,-1.4c0.71797,0 1.3,0.6268 1.3,1.4z" fill="#000000"/><path d="M152.65,78.16c0,0.7732 -0.58203,1.4 -1.3,1.4c-0.71797,0 -1.3,-0.6268 -1.3,-1.4c0,-0.7732 0.58203,-1.4 1.3,-1.4c0.71797,0 1.3,0.6268 1.3,1.4z" fill="#000000"/><path d="M368.65,106.16c0,0.7732 -0.58203,1.4 -1.3,1.4c-0.71797,0 -1.3,-0.6268 -1.3,-1.4c0,-0.7732 0.58203,-1.4 1.3,-1.4c0.71797,0 1.3,0.6268 1.3,1.4z" fill="#000000"/><path d="" fill="#f4ffa1"/></g></g></svg>