<svg version="1.1" xmlns="http://www.w3.org/2000/svg" xmlns:xlink="http://www.w3.org/1999/xlink" width="736.73273" height="466.70881" viewBox="0,0,736.73273,466.70881"><defs><linearGradient x1="240.00003" y1="-11.63623" x2="240.00003" y2="40.36375" gradientUnits="userSpaceOnUse" id="color-1"><stop offset="0" stop-color="#191919"/><stop offset="1" stop-color="#333333"/></linearGradient></defs><g transform="translate(129.1171,11.63625)"><g data-paper-data="{&quot;isPaintingLayer&quot;:true}" fill-rule="nonzero" stroke-linejoin="miter" stroke-miterlimit="10" stroke-dasharray="" stroke-dashoffset="0" style="mix-blend-mode: normal"><path d="M-14.24773,361.93962v-363.87838h508.4955v363.87838z" fill="#ffffff" stroke="#0052d9" stroke-width="0" stroke-linecap="butt"/><path d="M-119.99999,40.36375v-52h720v52z" fill="url(#color-1)" stroke="none" stroke-width="0" stroke-linecap="butt"/><path d="M-127.1171,453.07257v-2.93386h732.73273v2.93386z" fill="#202020" stroke="#00acff" stroke-width="4" stroke-linecap="butt"/><text transform="translate(6.50002,26.62041) scale(0.60724,0.60724)" font-size="40" xml:space="preserve" fill="#a7e338" fill-rule="nonzero" stroke="none" stroke-width="1" stroke-linecap="butt" stroke-linejoin="miter" stroke-miterlimit="10" stroke-dasharray="" stroke-dashoffset="0" font-family="Malgun Gothic" font-weight="normal" text-anchor="start" style="mix-blend-mode: normal"><tspan x="0" dy="0">About (Changelogs &amp; Links)</tspan></text><text transform="translate(3.60621,72.74904) scale(0.18912,0.18912)" font-size="40" xml:space="preserve" fill="#a7e338" fill-rule="nonzero" stroke-opacity="0" stroke="#000000" stroke-width="0" stroke-linecap="butt" stroke-linejoin="miter" stroke-miterlimit="10" stroke-dasharray="" stroke-dashoffset="0" font-family="Malgun Gothic" font-weight="normal" text-anchor="start" style="mix-blend-mode: normal"><tspan x="0" dy="0">Download Changelogs!</tspan></text><path d="M391.33334,26.44156c0,-2.6593 0,-8.05523 0,-9.8c0,-1.32145 1.02863,-2.22221 1.96547,-2.22221c1.65564,0 7.11697,0 10.2,0c1.29314,0 2.16787,1.06668 2.16787,2.02221c0,1.69741 0,7.29835 0,10.2c0,1.07369 -0.91078,1.77779 -1.76787,1.77779c-1.7285,0 -8.03201,0 -11,0c-0.95562,0 -1.56547,-0.79846 -1.56547,-1.97779z" fill="#101010" stroke="#101010" stroke-width="2.5" stroke-linecap="butt"/><path d="M411.33333,26.44156c0,-2.6593 0,-8.05523 0,-9.8c0,-1.32145 1.02863,-2.22221 1.96547,-2.22221c1.65564,0 7.11697,0 10.2,0c1.29314,0 2.16787,1.06668 2.16787,2.02221c0,1.69741 0,7.29835 0,10.2c0,1.07368 -0.91078,1.77779 -1.76787,1.77779c-1.7285,0 -8.03201,0 -11,0c-0.95562,0 -1.56547,-0.79845 -1.56547,-1.97779z" fill="#a7e338" stroke="#a7e338" stroke-width="2.5" stroke-linecap="butt"/><text transform="translate(98.506,72.60698) scale(0.19404,0.19404)" font-size="40" xml:space="preserve" fill="#a6e238" fill-rule="nonzero" stroke="none" stroke-width="1" stroke-linecap="butt" stroke-linejoin="miter" stroke-miterlimit="10" stroke-dasharray="" stroke-dashoffset="0" font-family="Malgun Gothic" font-weight="normal" text-anchor="start" style="mix-blend-mode: normal"><tspan x="0" dy="0">Open Aditya OS Flash </tspan><tspan x="0" dy="46.150000000000006px">right now!</tspan></text><path d="M92,305.50005v-241" fill="none" stroke="#a7e338" stroke-width="5" stroke-linecap="round"/><path d="M182.49548,304.50001v-241" fill="none" stroke="#a7e338" stroke-width="5" stroke-linecap="round"/><text transform="translate(188.5,73.67369) scale(0.19597,0.19597)" font-size="40" xml:space="preserve" fill="#a6e238" fill-rule="nonzero" stroke="none" stroke-width="1" stroke-linecap="butt" stroke-linejoin="miter" stroke-miterlimit="10" stroke-dasharray="" stroke-dashoffset="0" font-family="Malgun Gothic" font-weight="normal" text-anchor="start" style="mix-blend-mode: normal"><tspan x="0" dy="0">Open Aditya OS Java </tspan><tspan x="0" dy="46.150000000000006px">right now!</tspan></text><path d="M270.1081,63.99858v241" fill="none" stroke="#a7e338" stroke-width="5" stroke-linecap="round"/><text transform="translate(275.51501,75.58782) scale(0.19653,0.19653)" font-size="40" xml:space="preserve" fill="#a6e238" fill-rule="nonzero" stroke="none" stroke-width="1" stroke-linecap="butt" stroke-linejoin="miter" stroke-miterlimit="10" stroke-dasharray="" stroke-dashoffset="0" font-family="Malgun Gothic" font-weight="normal" text-anchor="start" style="mix-blend-mode: normal"><tspan x="0" dy="0">Sponsor our game!</tspan></text><path d="M349.1081,305.99861v-241" fill="none" stroke="#a7e338" stroke-width="5" stroke-linecap="round"/><text transform="translate(354.51501,76.58782) scale(0.19654,0.19654)" font-size="40" xml:space="preserve" fill="#a6e238" fill-rule="nonzero" stroke="none" stroke-width="1" stroke-linecap="butt" stroke-linejoin="miter" stroke-miterlimit="10" stroke-dasharray="" stroke-dashoffset="0" font-family="Malgun Gothic" font-weight="normal" text-anchor="start" style="mix-blend-mode: normal"><tspan x="0" dy="0">Read README.md!</tspan></text><path d="M425.1081,66.99859v241" fill="none" stroke="#a7e338" stroke-width="5" stroke-linecap="round"/><text transform="translate(430.51501,78.22831) scale(0.24157,0.24157)" font-size="40" xml:space="preserve" fill="#a6e238" fill-rule="nonzero" stroke="none" stroke-width="1" stroke-linecap="butt" stroke-linejoin="miter" stroke-miterlimit="10" stroke-dasharray="" stroke-dashoffset="0" font-family="Malgun Gothic" font-weight="normal" text-anchor="start" style="mix-blend-mode: normal"><tspan x="0" dy="0">View the </tspan><tspan x="0" dy="48px">official </tspan><tspan x="0" dy="48px">website of</tspan><tspan x="0" dy="48px">Aditya OS.</tspan></text></g></g></svg>