<svg version="1.1" xmlns="http://www.w3.org/2000/svg" xmlns:xlink="http://www.w3.org/1999/xlink" width="122.12038" height="37.57571" viewBox="0,0,122.12038,37.57571"><g transform="translate(-184.00253,-304.77029)"><g data-paper-data="{&quot;isPaintingLayer&quot;:true}" fill-rule="nonzero" stroke="none" stroke-width="1" stroke-linecap="butt" stroke-linejoin="miter" stroke-miterlimit="10" stroke-dasharray="" stroke-dashoffset="0" style="mix-blend-mode: normal"><path d="M306.12291,308.54252v30.03125c0,2.08332 -1.6889,3.77222 -3.77222,3.77222h-114.57593c-2.08332,0 -3.77222,-1.6889 -3.77222,-3.77222v-30.03125c0,-2.08332 1.68891,-3.77223 3.77222,-3.77223h114.57593c2.08332,0 3.77222,1.68891 3.77222,3.77223z" fill="#ff2449"/><path d="M195.23587,310.28787c-1.30373,0.77332 -3.87025,3.72238 -3.89468,4.49571v1.28062c0,1.62289 1.51694,3.04924 2.8941,3.04924c1.65358,0 3.03142,-1.37089 3.03142,-2.99758c0,1.62669 1.33095,2.99758 2.98503,2.99758c1.65358,0 2.94164,-1.37089 2.94164,-2.99758c0,1.62669 1.41512,2.99758 3.06871,2.99758h0.02987c1.65408,0 3.06871,-1.37089 3.06871,-2.99758c0,1.62669 1.28871,2.99758 2.94213,2.99758c1.65408,0 2.98454,-1.37089 2.98454,-2.99758c0,1.62669 1.37849,2.99758 3.03191,2.99758c1.37716,0 2.8941,-1.42634 2.8941,-3.04989v-1.27996c-0.02426,-0.77349 -2.59161,-3.72238 -3.89451,-4.49571c-4.0498,-0.14225 -6.85727,-0.16717 -11.0419,-0.16668c-4.18381,0 -9.88918,0.06552 -11.04174,0.16668zM203.17276,318.34886c-0.1581,0.27579 -0.35396,0.52814 -0.5819,0.74973c-0.64723,0.63441 -1.51764,0.98937 -2.42394,0.98852c-0.90761,0.00071 -1.77934,-0.35442 -2.42807,-0.98918c-0.2193,-0.2172 -0.40646,-0.4646 -0.55581,-0.73471l-0.0005,0.0005c-0.15727,0.27643 -0.37676,0.51341 -0.60318,0.73537c-0.64923,0.63437 -1.5212,0.98906 -2.4289,0.98802c-0.11187,-0.00383 -0.22241,-0.02556 -0.32742,-0.06436c-0.11443,1.22128 -0.18411,2.44633 -0.20892,3.67271v0.00562l-0.00743,1.45258c0.02475,2.90467 -0.28764,9.41455 1.28046,11.01434c2.4307,0.56638 6.90282,0.82465 11.38929,0.82646h0.00115c4.48647,-0.00182 8.95925,-0.26009 11.38929,-0.82646c1.56859,-1.59979 1.25554,-8.10967 1.28111,-11.015l-0.00759,-1.45192v-0.00628c-0.02475,-1.22616 -0.09439,-2.45084 -0.20892,-3.67189c-0.10499,0.03884 -0.21553,0.06057 -0.32742,0.06436c-0.90774,0.00083 -1.77965,-0.35411 -2.42873,-0.98868c-0.22642,-0.22213 -0.44607,-0.45845 -0.60318,-0.73488h-0.00066c-0.14938,0.2697 -0.33648,0.51672 -0.55565,0.73356c-0.64875,0.63482 -1.52055,0.98997 -2.42823,0.98918c-0.90623,0.00076 -1.77656,-0.3542 -2.42378,-0.98852c-0.22794,-0.22159 -0.42379,-0.47394 -0.58189,-0.74973c-0.15639,0.27547 -0.3504,0.52781 -0.57644,0.74973c-0.64889,0.63492 -1.52088,0.99007 -2.42873,0.98918c-0.03286,-0.0002 -0.0657,-0.00103 -0.09852,-0.00248h-0.00132c-0.03234,0 -0.06535,0.00248 -0.09852,0.00248c-0.90785,0.00088 -1.77984,-0.35426 -2.42873,-0.98918c-0.2262,-0.22171 -0.42039,-0.47388 -0.57694,-0.74923zM200.67852,321.57352v0.00182h0.00181c0.98737,0.00182 1.86499,0 2.95203,1.18639c0.87861,-0.09076 1.76135,-0.135 2.64458,-0.13285c0.88324,-0.00212 1.76599,0.04222 2.64458,0.13285c1.08787,-1.18639 1.96484,-1.18507 2.95286,-1.18639h0.00181v-0.00115c0.46653,0 2.33268,-0.00016 3.63377,3.65308l1.39713,5.01159c1.03539,3.728 -0.33171,3.81909 -2.03645,3.82289c-2.52857,-0.09423 -3.92818,-1.9305 -3.92818,-3.76678c-1.39961,0.22956 -3.03256,0.34441 -4.66552,0.34441c-1.63279,0 -3.26575,-0.11486 -4.66536,-0.34441c0,1.83628 -1.3996,3.67255 -3.92817,3.76678c-1.70475,-0.0038 -3.07119,-0.09489 -2.03596,-3.82355l1.39714,-5.01093c1.30109,-3.65324 3.16739,-3.65308 3.63393,-3.65308zM206.27695,324.44518c-0.00248,0.00297 -2.66208,2.4449 -3.13984,3.31378l1.74155,-0.06981v1.51876c0,0.07112 0.69857,0.04175 1.39829,0.00924c0.69988,0.03251 1.39911,0.06188 1.39911,-0.00924v-1.51876l1.74138,0.06981c-0.47842,-0.86822 -3.13984,-3.31328 -3.13984,-3.31328zM231.3146,336.11997v-12.1532h4.1003v12.1532zM233.38967,322.97807c-0.6918,0 -1.22715,-0.17278 -1.60606,-0.51835c-0.36224,-0.3459 -0.54328,-0.80699 -0.54328,-1.38344c0,-0.54344 0.18104,-1.00453 0.54328,-1.38344c0.37891,-0.37824 0.91393,-0.56753 1.60556,-0.56753c0.6918,0 1.2189,0.18929 1.58114,0.5677c0.37874,0.37824 0.5682,0.8395 0.5682,1.38327c0,0.57644 -0.18929,1.03754 -0.5677,1.38344c-0.36257,0.34557 -0.88951,0.51835 -1.58114,0.51835zM241.53367,336.36701c-1.18589,0 -2.08366,-0.31289 -2.69327,-0.93868c-0.59246,-0.64213 -0.88868,-1.5313 -0.88868,-2.66769v-5.75571h-1.63048v-3.03884h1.63048v-2.96391h4.1003v2.96458h2.66835v3.03751h-2.66835v5.16309c0,0.3789 0.07393,0.65054 0.22196,0.81524c0.1647,0.14853 0.41175,0.22262 0.74114,0.22262c0.44492,0 0.93077,-0.1977 1.45754,-0.59311l0.93868,2.6926c-0.47726,0.32972 -1.0207,0.59328 -1.63032,0.79033c-0.60928,0.18169 -1.35835,0.27262 -2.24736,0.27262zM251.6194,336.36701c-1.87753,0 -3.35965,-0.53518 -4.44653,-1.60556c-1.07038,-1.07021 -1.60557,-2.62643 -1.60557,-4.6685c0,-1.48245 0.30465,-2.72578 0.91377,-3.72998c0.62579,-1.03787 1.40835,-1.73791 2.34769,-2.09999c0.98802,-0.3789 1.90212,-0.5682 2.74261,-0.5682c1.05355,0 1.93479,0.21404 2.64326,0.64246c0.70814,0.41158 1.22683,0.86442 1.55622,1.35835c0.3464,0.4941 0.59345,0.88092 0.74098,1.16081l-2.84048,1.82819c-0.26272,-0.54361 -0.55086,-0.97186 -0.86442,-1.28492c-0.31273,-0.31273 -0.69114,-0.46901 -1.13523,-0.46901c-0.62612,0 -1.12021,0.24688 -1.48196,0.74097c-0.36224,0.49393 -0.54327,1.24333 -0.54327,2.24786c0,1.08688 0.21421,1.88578 0.64246,2.39639c0.42742,0.5106 1.03671,0.7659 1.82752,0.7659c0.62628,0 1.14497,-0.11536 1.55622,-0.34607c0.42825,-0.2312 0.83174,-0.52776 1.21065,-0.88951l1.30984,3.06244c-0.39541,0.3289 -0.98027,0.65846 -1.75459,0.98868c-0.77382,0.31223 -1.7125,0.46835 -2.81605,0.46835zM257.58584,336.11997v-16.50122h4.12538v5.01472c0.34557,-0.24705 0.76557,-0.46109 1.26,-0.64245c0.49393,-0.19754 1.08672,-0.29623 1.77819,-0.29623c1.44912,0 2.52774,0.41158 3.23588,1.23491c0.72481,0.82416 1.08721,1.98546 1.08721,3.48408v7.7075h-4.12538v-7.21407c0,-0.69114 -0.13169,-1.19332 -0.39475,-1.50687c-0.26289,-0.3289 -0.60863,-0.49344 -1.03737,-0.49344c-0.36208,0 -0.70005,0.08251 -1.01344,0.2477c-0.3124,0.16454 -0.57579,0.33782 -0.79032,0.51952v8.44831h-4.12538zM272.23973,336.36701c-0.65863,0 -1.17748,-0.18929 -1.55622,-0.5677c-0.37841,-0.37874 -0.56754,-0.86458 -0.56754,-1.45753c0,-0.59295 0.18913,-1.08704 0.56754,-1.48196c0.37874,-0.39508 0.89759,-0.59262 1.55622,-0.59262c0.62579,0 1.12813,0.19754 1.50687,0.59262c0.37923,0.39492 0.56885,0.88901 0.56885,1.48196c0,0.59295 -0.18912,1.07863 -0.56753,1.45704c-0.36174,0.37874 -0.86409,0.56819 -1.50704,0.56819zM275.27344,336.11997v-12.1532h4.10047v12.1532zM277.34736,322.98055c-0.69147,0 -1.22665,-0.17295 -1.60539,-0.51885c-0.36224,-0.34557 -0.54327,-0.8065 -0.54327,-1.38294c0,-0.54344 0.18087,-1.00453 0.54262,-1.38327c0.37923,-0.3789 0.91458,-0.56835 1.60605,-0.56835c0.69196,0 1.21907,0.18928 1.58114,0.56769c0.37841,0.37923 0.56754,0.8405 0.56754,1.38394c0,0.57644 -0.18913,1.03737 -0.56754,1.38294c-0.36208,0.3459 -0.88918,0.51885 -1.58114,0.51885zM286.61471,336.36701c-0.95518,0 -1.80343,-0.15644 -2.54474,-0.46901c-0.74098,-0.32939 -1.37502,-0.77415 -1.90179,-1.33426c-0.51027,-0.57628 -0.90518,-1.25142 -1.18507,-2.02524c-0.26405,-0.79048 -0.39607,-1.64698 -0.39607,-2.56966c0,-1.36644 0.29639,-2.56025 0.88934,-3.58145c0.60962,-1.0047 1.36727,-1.70441 2.27294,-2.09949c0.92218,-0.39541 1.87736,-0.59312 2.86539,-0.59312c1.41578,0 2.58468,0.32923 3.50653,0.98786c0.93852,0.65879 1.59765,1.48212 1.97721,2.46998c0.37841,0.98852 0.56769,1.92737 0.56769,2.81671c0,0.92201 -0.14027,1.77835 -0.42049,2.56916c-0.26322,0.77349 -0.65864,1.44846 -1.18623,2.02524c-0.51076,0.56011 -1.1448,1.00503 -1.90245,1.33475c-0.74098,0.31322 -1.58922,0.46967 -2.54474,0.46967zM286.61471,333.20474c0.69147,0 1.19381,-0.28798 1.50687,-0.86393c0.31273,-0.59295 0.46902,-1.38344 0.46902,-2.37147c0,-0.93885 -0.16454,-1.68808 -0.49393,-2.24785c-0.3289,-0.56011 -0.82283,-0.84016 -1.48196,-0.84016c-0.64245,0 -1.12814,0.28006 -1.45704,0.84016c-0.3289,0.55978 -0.49344,1.309 -0.49344,2.24785c0,0.98802 0.15661,1.77835 0.46967,2.37081c0.33022,0.57677 0.82415,0.86508 1.48195,0.86508zM241.71966,313.72409c-0.31949,0.01486 -0.58816,0.04324 -0.80616,0.08515c-0.21801,0.03878 -0.3926,0.08961 -0.52413,0.15216c-0.13136,0.06271 -0.22543,0.13598 -0.28204,0.21949c-0.05572,0.08022 -0.08546,0.17562 -0.08516,0.27329c0,0.19407 0.05677,0.33286 0.17015,0.41653c0.11651,0.08367 0.26735,0.12542 0.45234,0.12542c0.22708,0 0.42264,-0.04027 0.58684,-0.12097c0.16717,-0.08367 0.32989,-0.20892 0.48815,-0.37626zM239.18465,311.73088c0.52842,-0.48354 1.16444,-0.72547 1.90806,-0.72547c0.26866,0 0.50911,0.04472 0.72101,0.13433c0.21206,0.08664 0.39112,0.20893 0.5375,0.36719c0.14638,0.15529 0.25679,0.34194 0.33138,0.55994c0.07773,0.21784 0.11651,0.45679 0.11651,0.71672v2.90236h-0.50169c-0.10447,0 -0.18499,-0.01485 -0.24176,-0.04488c-0.05677,-0.03284 -0.10149,-0.09704 -0.13433,-0.19259l-0.09869,-0.33138c-0.10869,0.09819 -0.22226,0.19083 -0.34029,0.27758c-0.11057,0.07756 -0.22543,0.14341 -0.34491,0.19721c-0.11948,0.05363 -0.24787,0.09407 -0.38518,0.1208c-0.13433,0.02987 -0.28368,0.04489 -0.44789,0.04489c-0.19407,0 -0.37329,-0.02541 -0.5375,-0.07624c-0.16421,-0.05363 -0.30613,-0.13284 -0.42544,-0.23731c-0.1212,-0.1069 -0.21622,-0.24021 -0.27775,-0.38963c-0.06568,-0.15529 -0.09852,-0.336 -0.09852,-0.54196c0,-0.11651 0.01931,-0.23153 0.05825,-0.3449c0.0415,-0.12119 0.10525,-0.23358 0.18797,-0.33138c0.08961,-0.10463 0.20463,-0.20299 0.34491,-0.29573c0.14044,-0.09242 0.31207,-0.17328 0.51505,-0.24177c0.20612,-0.06865 0.44492,-0.12394 0.71672,-0.16585c0.27164,-0.04473 0.58222,-0.07162 0.93158,-0.08053v-0.26883c0,-0.30745 -0.06568,-0.53436 -0.19705,-0.68074c-0.13136,-0.14935 -0.32098,-0.22395 -0.56885,-0.22395c-0.17906,0 -0.32841,0.02096 -0.44789,0.06271c-0.11651,0.04175 -0.21949,0.08961 -0.3091,0.14325c-0.08945,0.05083 -0.17163,0.09721 -0.24622,0.13896c-0.07179,0.04175 -0.15232,0.06271 -0.24193,0.06271c-0.07756,0 -0.14324,-0.01947 -0.19704,-0.05825c-0.05167,-0.03949 -0.09568,-0.0881 -0.12988,-0.14341zM247.87919,311.09057l-1.82307,4.59538h-1.00321l-1.82291,-4.59555h0.9136c0.08367,0 0.15232,0.01948 0.20612,0.05826c0.05677,0.03878 0.09406,0.08812 0.11189,0.14786l0.88687,2.45447c0.0914,0.27256 0.16473,0.55085 0.21949,0.83306c0.03003,-0.13801 0.06288,-0.2754 0.09852,-0.41207c0.03581,-0.13731 0.07921,-0.27775 0.12988,-0.42099l0.90485,-2.45447c0.02079,-0.05974 0.05809,-0.10892 0.11189,-0.14786c0.0538,-0.03878 0.118,-0.05826 0.19259,-0.05826h0.8735zM250.78254,313.72409c-0.31949,0.01486 -0.58816,0.04324 -0.80616,0.08515c-0.21801,0.03878 -0.3926,0.08961 -0.52397,0.15216c-0.13136,0.06271 -0.22543,0.13598 -0.2822,0.21949c-0.05572,0.08022 -0.08546,0.17562 -0.08516,0.27329c0,0.19407 0.05677,0.33286 0.17031,0.41653c0.11634,0.08367 0.26719,0.12542 0.45235,0.12542c0.22691,0 0.42247,-0.04027 0.58667,-0.12097c0.16717,-0.08367 0.32989,-0.20892 0.48816,-0.37626zM248.24753,311.73088c0.52842,-0.48354 1.16444,-0.72547 1.90806,-0.72547c0.26866,0 0.50912,0.04472 0.72101,0.13433c0.21206,0.08664 0.39128,0.20893 0.5375,0.36719c0.14638,0.15529 0.25678,0.34194 0.33154,0.55994c0.07756,0.21784 0.11634,0.45679 0.11634,0.71672v2.90236h-0.50152c-0.10463,0 -0.18516,-0.01485 -0.24193,-0.04488c-0.05677,-0.03284 -0.1015,-0.09704 -0.13434,-0.19259l-0.09852,-0.33138c-0.10878,0.09816 -0.2224,0.19079 -0.34045,0.27758c-0.10844,0.07655 -0.22393,0.14259 -0.34491,0.19721c-0.11948,0.05363 -0.24787,0.09407 -0.38518,0.1208c-0.13433,0.02987 -0.28368,0.04489 -0.44788,0.04489c-0.19407,0 -0.3733,-0.02541 -0.5375,-0.07624c-0.16421,-0.05363 -0.30596,-0.13284 -0.42544,-0.23731c-0.1212,-0.1069 -0.21622,-0.24021 -0.27774,-0.38963c-0.06568,-0.15529 -0.09852,-0.336 -0.09852,-0.54196c0,-0.11651 0.01947,-0.23153 0.05826,-0.3449c0.04149,-0.12122 0.1053,-0.23362 0.18813,-0.33138c0.08961,-0.10463 0.20447,-0.20299 0.34491,-0.29573c0.14028,-0.09242 0.31191,-0.17328 0.51506,-0.24177c0.20595,-0.06865 0.44492,-0.12394 0.71655,-0.16585c0.2718,-0.04473 0.58222,-0.07162 0.93158,-0.08053v-0.26883c0,-0.30745 -0.06568,-0.53436 -0.19705,-0.68074c-0.13136,-0.14935 -0.32098,-0.22395 -0.56885,-0.22395c-0.17906,0 -0.32841,0.02096 -0.44789,0.06271c-0.11634,0.04175 -0.21949,0.08961 -0.30893,0.14325c-0.08961,0.05083 -0.1718,0.09721 -0.24639,0.13896c-0.07162,0.04175 -0.15232,0.06271 -0.24193,0.06271c-0.07756,0 -0.14324,-0.01947 -0.19704,-0.05825c-0.05167,-0.03949 -0.09568,-0.0881 -0.12988,-0.14341zM254.0506,311.09057v4.59538h-1.1108v-4.59555h1.1108zM254.20292,309.75119c0,0.09571 -0.01947,0.18516 -0.05826,0.26883c-0.03878,0.08351 -0.0911,0.15678 -0.15678,0.21949c-0.06271,0.06271 -0.13731,0.11338 -0.22395,0.15215c-0.08811,0.03614 -0.18251,0.05443 -0.27774,0.0538c-0.0937,0.00035 -0.18655,-0.01794 -0.27312,-0.0538c-0.08158,-0.03735 -0.15589,-0.08886 -0.21948,-0.15215c-0.06336,-0.06358 -0.11493,-0.13789 -0.15233,-0.21949c-0.03612,-0.08499 -0.05443,-0.17649 -0.05379,-0.26883c0,-0.09852 0.01798,-0.1911 0.05379,-0.27758c0.03878,-0.08664 0.08962,-0.16124 0.15233,-0.22395c0.06271,-0.06271 0.13581,-0.11205 0.21948,-0.14786c0.08584,-0.03868 0.17897,-0.05855 0.27312,-0.05826c0.09567,-0.00059 0.19036,0.01928 0.27774,0.05826c0.08664,0.03581 0.16124,0.08515 0.22395,0.14786c0.06568,0.06271 0.118,0.13731 0.15678,0.22395c0.03895,0.08733 0.05882,0.18196 0.05826,0.27758zM256.29812,309.03002v6.65594h-1.10618v-6.65577h1.10618zM259.82809,313.72409c-0.3195,0.01486 -0.58832,0.04324 -0.80633,0.08515c-0.21784,0.03878 -0.3926,0.08961 -0.52396,0.15216c-0.13137,0.06271 -0.22543,0.13598 -0.2822,0.21949c-0.05572,0.08022 -0.08546,0.17562 -0.08516,0.27329c0,0.19407 0.05677,0.33286 0.17031,0.41653c0.11635,0.08367 0.26718,0.12542 0.45234,0.12542c0.22692,0 0.42247,-0.04027 0.58668,-0.12097c0.16734,-0.08367 0.33006,-0.20892 0.48832,-0.37626zM257.29292,311.73088c0.52859,-0.48354 1.16461,-0.72547 1.90806,-0.72547c0.26866,0 0.50911,0.04472 0.72117,0.13433c0.2119,0.08664 0.39112,0.20893 0.53733,0.36719c0.14638,0.15529 0.25695,0.34194 0.33154,0.55994c0.07756,0.21784 0.11651,0.45679 0.11651,0.71672v2.90236h-0.50169c-0.10447,0 -0.18516,-0.01485 -0.24193,-0.04488c-0.05677,-0.03284 -0.10149,-0.09704 -0.13434,-0.19259l-0.09852,-0.33138c-0.10874,0.09819 -0.22237,0.19084 -0.34045,0.27758c-0.10844,0.07655 -0.22393,0.14259 -0.34491,0.19721c-0.11931,0.05363 -0.24771,0.09407 -0.38518,0.1208c-0.13434,0.02987 -0.28368,0.04489 -0.44788,0.04489c-0.19407,0 -0.37313,-0.02541 -0.5375,-0.07624c-0.1642,-0.05363 -0.30597,-0.13284 -0.42545,-0.23731c-0.1212,-0.1069 -0.21621,-0.24021 -0.27774,-0.38963c-0.06568,-0.15529 -0.09852,-0.336 -0.09852,-0.54196c0,-0.11651 0.01948,-0.23153 0.05826,-0.3449c0.04149,-0.12122 0.1053,-0.23362 0.18813,-0.33138c0.08961,-0.10463 0.20447,-0.20299 0.34491,-0.29573c0.14027,-0.09242 0.31207,-0.17328 0.51506,-0.24177c0.20596,-0.06865 0.44492,-0.12394 0.71656,-0.16585c0.2718,-0.04473 0.58238,-0.07162 0.93175,-0.08053v-0.26883c0,-0.30745 -0.06568,-0.53436 -0.19721,-0.68074c-0.13137,-0.14935 -0.32098,-0.22395 -0.56869,-0.22395c-0.17922,0 -0.32857,0.02096 -0.44788,0.06271c-0.11651,0.04175 -0.21949,0.08961 -0.3091,0.14325c-0.08961,0.05083 -0.17179,0.09721 -0.24639,0.13896c-0.07162,0.04175 -0.15232,0.06271 -0.24177,0.06271c-0.07773,0 -0.14341,-0.01947 -0.19721,-0.05825c-0.05163,-0.03954 -0.09564,-0.08813 -0.12988,-0.14341zM263.05572,314.49445c0.12542,0.15232 0.26124,0.25976 0.40762,0.32247c0.14881,0.06263 0.30872,0.09462 0.47017,0.09407c0.17031,0 0.32262,-0.0297 0.45696,-0.08961c0.13731,-0.06271 0.25382,-0.15826 0.34937,-0.28665c0.09555,-0.13137 0.16865,-0.29705 0.21948,-0.49707c0.05066,-0.20299 0.07608,-0.44492 0.07608,-0.72563c0,-0.50466 -0.08367,-0.86887 -0.25084,-1.09282c-0.16717,-0.22692 -0.40762,-0.34046 -0.72118,-0.34046c-0.2119,0 -0.39706,0.04935 -0.55532,0.14787c-0.15826,0.09555 -0.3091,0.23137 -0.45234,0.40762zM263.05572,311.65479c0.18516,-0.19407 0.38963,-0.34788 0.61357,-0.46125c0.22692,-0.11651 0.48519,-0.17476 0.77481,-0.17476c0.26586,0 0.50466,0.05231 0.71672,0.15678c0.21562,0.10503 0.40297,0.26013 0.54641,0.45234c0.15232,0.19407 0.26867,0.43006 0.34937,0.70764c0.0807,0.27774 0.12097,0.58981 0.12097,0.93621c0,0.37313 -0.04637,0.7121 -0.13895,1.01658c-0.09242,0.30464 -0.22543,0.56604 -0.39855,0.78388c-0.1658,0.21145 -0.37702,0.3829 -0.61804,0.50169c-0.24193,0.11948 -0.5106,0.17923 -0.80633,0.17923c-0.14324,0 -0.27312,-0.01486 -0.38963,-0.04489c-0.22018,-0.04964 -0.42478,-0.15268 -0.59575,-0.30002c-0.08053,-0.07476 -0.15826,-0.15678 -0.23286,-0.24639l-0.04935,0.3091c-0.01783,0.07756 -0.04917,0.13285 -0.0939,0.16569c-0.04192,0.03284 -0.10017,0.04934 -0.17477,0.04934h-0.73008v-6.65577h1.10635zM268.15164,309.03018v6.65561h-1.10618v-6.65561zM272.21448,312.85967c0,-0.14341 -0.0208,-0.27774 -0.06255,-0.40317c-0.03611,-0.12304 -0.09711,-0.23735 -0.17922,-0.33583c-0.0807,-0.09571 -0.18368,-0.17031 -0.3091,-0.22394c-0.12245,-0.05677 -0.2657,-0.08515 -0.4299,-0.08515c-0.3195,0 -0.57182,0.09109 -0.75698,0.27312c-0.18219,0.18219 -0.29853,0.44063 -0.34936,0.77497zM270.10492,313.52705c0.01799,0.23599 0.05974,0.44047 0.12542,0.61358c0.06568,0.17014 0.15232,0.3119 0.25975,0.42544c0.10721,0.11023 0.23712,0.19583 0.38072,0.25085c0.14935,0.0538 0.31356,0.0807 0.49278,0.0807c0.17906,0 0.33286,-0.02096 0.46125,-0.06271c0.11739,-0.03609 0.23133,-0.08259 0.34045,-0.13896c0.08628,-0.044 0.17141,-0.09022 0.2553,-0.13862c0.07459,-0.04192 0.14639,-0.06271 0.21504,-0.06271c0.09258,0 0.16123,0.03416 0.20596,0.10281l0.31801,0.40317c-0.119,0.14029 -0.25782,0.26249 -0.41208,0.36273c-0.1508,0.09487 -0.3115,0.173 -0.47924,0.23302c-0.1642,0.05677 -0.33287,0.09704 -0.50615,0.12097c-0.16465,0.02349 -0.33075,0.03546 -0.49707,0.03582c-0.3195,0 -0.61671,-0.05232 -0.89132,-0.15678c-0.26958,-0.10413 -0.51391,-0.26446 -0.71672,-0.47033c-0.20299,-0.20909 -0.36273,-0.46587 -0.47924,-0.77035c-0.11635,-0.30761 -0.1746,-0.66292 -0.1746,-1.06608c0,-0.31356 0.05066,-0.60764 0.15216,-0.88225c0.10166,-0.27774 0.24638,-0.51819 0.43452,-0.72118c0.1911,-0.20596 0.42248,-0.36867 0.69428,-0.48816c0.27477,-0.11948 0.58371,-0.17922 0.92713,-0.17922c0.28963,0 0.5568,0.04621 0.80171,0.13879c0.23781,0.08803 0.45341,0.22717 0.63157,0.40762c0.17625,0.17625 0.31356,0.39426 0.41208,0.65401c0.10149,0.25678 0.15232,0.55086 0.15232,0.88225c0,0.16734 -0.01799,0.28071 -0.0538,0.34045c-0.03581,0.05677 -0.10446,0.08515 -0.20596,0.08515zM278.25073,311.01878c0.34046,0 0.64955,0.05528 0.9273,0.16569c0.28055,0.11057 0.51951,0.26734 0.71656,0.47033c0.20002,0.20299 0.35382,0.45086 0.46142,0.74346c0.10744,0.29276 0.16123,0.61968 0.16123,0.98093c0,0.36439 -0.05379,0.69279 -0.16123,0.98539c-0.1076,0.2926 -0.2614,0.54195 -0.46142,0.74807c-0.19705,0.20596 -0.43601,0.36422 -0.71656,0.47463c-0.27774,0.11057 -0.58684,0.16586 -0.9273,0.16586c-0.34326,0 -0.65533,-0.05529 -0.93604,-0.16586c-0.28071,-0.11041 -0.521,-0.26867 -0.72118,-0.47463c-0.19705,-0.20612 -0.35085,-0.45548 -0.46125,-0.74807c-0.10744,-0.2926 -0.16123,-0.621 -0.16123,-0.98522c0,-0.36142 0.05379,-0.68833 0.16123,-0.98109c0.11041,-0.2926 0.26421,-0.54047 0.46125,-0.74346c0.20018,-0.20299 0.44046,-0.35976 0.72118,-0.47033c0.28071,-0.11057 0.59278,-0.16569 0.93604,-0.16569zM278.25073,314.90207c0.3822,0 0.66441,-0.12839 0.8466,-0.38518c0.18516,-0.25678 0.27774,-0.63306 0.27774,-1.1288c0,-0.49558 -0.09258,-0.87333 -0.27774,-1.13308c-0.18219,-0.25975 -0.46439,-0.38963 -0.8466,-0.38963c-0.38815,0 -0.67629,0.13136 -0.86442,0.39409c-0.185,0.25975 -0.27758,0.63602 -0.27758,1.1288c0,0.49261 0.09258,0.86888 0.27758,1.12863c0.18813,0.25678 0.47627,0.38518 0.86442,0.38518zM282.39576,311.65479c0.09132,-0.09148 0.18862,-0.17676 0.29127,-0.2553c0.1014,-0.07873 0.21102,-0.14629 0.32692,-0.2015c0.11847,-0.05746 0.24318,-0.10103 0.37165,-0.12987c0.1408,-0.03396 0.28523,-0.05053 0.43006,-0.04935c0.25085,0 0.4733,0.04324 0.66737,0.12988c0.19407,0.08367 0.35531,0.20299 0.4837,0.35827c0.13137,0.15232 0.22988,0.336 0.29556,0.55103c0.06881,0.2119 0.10315,0.44641 0.10315,0.70303v2.92496h-1.10636v-2.92496c0,-0.28071 -0.06419,-0.49724 -0.19259,-0.64956c-0.12839,-0.15512 -0.32395,-0.23269 -0.58684,-0.23269c-0.18698,-0.00104 -0.37141,0.04348 -0.53733,0.12972c-0.16734,0.08664 -0.32561,0.20463 -0.47479,0.35382v3.32351h-1.10635v-4.59539h0.67628c0.14341,0 0.23748,0.06716 0.2822,0.20166z" fill="#ffffff"/></g></g></svg>