<svg version="1.1" xmlns="http://www.w3.org/2000/svg" xmlns:xlink="http://www.w3.org/1999/xlink" width="67.26088" height="27.60734" viewBox="0,0,67.26088,27.60734"><defs><linearGradient x1="309.85483" y1="261.42737" x2="309.85483" y2="289.03472" gradientUnits="userSpaceOnUse" id="color-1"><stop offset="0" stop-color="#1a1a1a" stop-opacity="0"/><stop offset="1" stop-color="#1a1a1a"/></linearGradient></defs><g transform="translate(-276.2244,-261.42737)"><g data-paper-data="{&quot;isPaintingLayer&quot;:true}" fill-rule="nonzero" stroke="none" stroke-linecap="butt" stroke-linejoin="miter" stroke-miterlimit="10" stroke-dasharray="" stroke-dashoffset="0" style="mix-blend-mode: normal"><path d="M276.22441,284.2125c0,-3.41996 0,-13.58936 0,-19.05156c0,-2.14452 1.73667,-3.73356 3.61493,-3.73356c6.75117,0 46.97136,0.11973 59.75082,0.1583c2.45314,0.00741 3.89513,2.04998 3.89513,4.93609c0,5.70447 0,14.72157 0,17.86084c0,2.13617 -1.74125,4.65212 -3.75486,4.65212c-7.07569,0 -48.42366,0 -60.31087,0c-2.02506,0 -3.19512,-2.62296 -3.19512,-4.82223z" fill="url(#color-1)" stroke-width="0"/><text transform="translate(281.34657,280.9924) scale(0.37484,0.37484)" font-size="40" xml:space="preserve" fill="#a9e43a" fill-rule="nonzero" stroke="none" stroke-width="1" stroke-linecap="butt" stroke-linejoin="miter" stroke-miterlimit="10" stroke-dasharray="" stroke-dashoffset="0" font-family="Sans Serif" font-weight="normal" text-anchor="start" style="mix-blend-mode: normal"><tspan x="0" dy="0">Sponsor</tspan></text></g></g></svg>