<svg version="1.1" xmlns="http://www.w3.org/2000/svg" xmlns:xlink="http://www.w3.org/1999/xlink" width="753.24775" height="461.79927" viewBox="0,0,753.24775,461.79927"><g transform="translate(121.60886,12.4222)"><g data-paper-data="{&quot;isPaintingLayer&quot;:true}" fill-rule="nonzero" stroke-linejoin="miter" stroke-miterlimit="10" stroke-dasharray="" stroke-dashoffset="0" style="mix-blend-mode: normal"><path d="M-21.44545,373.14382v-385.56602h522.89091v385.56602z" fill="#1b1b1b" stroke="none" stroke-width="0" stroke-linecap="butt"/><path d="M628.88889,446.62707h-747.74775" fill="none" stroke="#0052d9" stroke-width="5.5" stroke-linecap="round"/><path d="M207.47501,207.4316c0,-14.02782 0,-46.74866 0,-54.59618c0,-3.307 4.36895,-6.69792 8.41607,-6.69792c7.63404,0 34.08638,0.05697 47.87455,0.08787c5.13185,0.0115 8.50937,3.42501 8.50937,6.82458c0,7.72152 0.25,39.88938 0.25,54.38165c0,4.58137 -3.1926,6.4309 -7.75893,6.4309c-13.50269,0 -41.20308,0 -49,0c-3.99654,0 -8.29107,-2.47044 -8.29107,-6.4309z" fill="#1a1a1a" stroke="#1a1a1a" stroke-width="4" stroke-linecap="butt"/><path d="M231.1663,191.84567c0,0 0.19242,-24.21431 0.23177,-29.21361c0.01345,-1.70817 1.77246,-3.67021 3.37145,-3.67021c3.06421,0 13.77861,0 18.82972,0c1.63244,0 2.67336,1.3256 2.67336,2.7431c0,4.88602 0,32.59169 0,32.59169" fill="none" stroke="#0052d9" stroke-width="4" stroke-linecap="round"/><path d="M256.2726,193.94794c0,3.0171 -2.49788,5.46294 -5.57918,5.46294c-3.08129,0 -5.57918,-2.44584 -5.57918,-5.46294c0,-3.0171 2.49788,-5.46294 5.57918,-5.46294c3.08129,0 5.57918,2.44584 5.57918,5.46294z" fill="#1a1a1a" stroke="#0052d9" stroke-width="4" stroke-linecap="butt"/><path d="M231.1663,193.94794c0,3.0171 -2.44584,5.46294 -5.46294,5.46294c-3.0171,0 -5.46294,-2.44584 -5.46294,-5.46294c0,-3.0171 2.44584,-5.46294 5.46294,-5.46294c3.0171,0 5.46294,2.44584 5.46294,5.46294z" fill="#1a1a1a" stroke="#0052d9" stroke-width="4" stroke-linecap="butt"/><path d="M-5.5,364.36082v-368h492v368z" fill="#1b1b1b" stroke="none" stroke-width="0" stroke-linecap="butt"/><path d="M207.47501,207.4316c0,-14.02782 0,-46.74866 0,-54.59618c0,-3.307 4.36895,-6.69792 8.41607,-6.69792c7.63404,0 34.08638,0.05697 47.87455,0.08787c5.13185,0.0115 8.50937,3.42501 8.50937,6.82458c0,7.72152 0.25,39.88938 0.25,54.38165c0,4.58137 -3.1926,6.4309 -7.75893,6.4309c-13.50269,0 -41.20308,0 -49,0c-3.99654,0 -8.29107,-2.47044 -8.29107,-6.4309z" fill="#1a1a1a" stroke="#1a1a1a" stroke-width="4" stroke-linecap="butt"/></g></g></svg>