<svg version="1.1" xmlns="http://www.w3.org/2000/svg" xmlns:xlink="http://www.w3.org/1999/xlink" width="69.18735" height="68.50906" viewBox="0,0,69.18735,68.50906"><g transform="translate(-205.40632,-145.74547)"><g data-paper-data="{&quot;isPaintingLayer&quot;:true}" fill-rule="nonzero" stroke-linejoin="miter" stroke-miterlimit="10" stroke-dasharray="" stroke-dashoffset="0" style="mix-blend-mode: normal"><path d="M274.59368,180c0,18.91825 -15.48811,34.25453 -34.59368,34.25453c-19.10556,0 -34.59367,-15.33627 -34.59367,-34.25453c0,-18.91825 15.48811,-34.25453 34.59367,-34.25453c19.10556,0 34.59368,15.33628 34.59368,34.25453z" fill="#efefef" stroke="none" stroke-width="0" stroke-linecap="butt"/><path d="M224.22129,201.99681v-9.35278h34.50136v9.35278z" fill="#a7e338" stroke="#a7e338" stroke-width="2.5" stroke-linecap="butt"/><path d="M239.3594,166.73245c0,4.82103 -4.0478,8.72926 -9.04102,8.72926c-4.99322,0 -9.04102,-3.90822 -9.04102,-8.72926c0,-4.82103 4.0478,-8.72926 9.04102,-8.72926c4.99322,0 9.04102,3.90822 9.04102,8.72926z" fill="#a7e338" stroke="#a7e338" stroke-width="2.5" stroke-linecap="butt"/><path d="M232.74271,185.61168l-3.94895,-4.98815" fill="none" stroke="#a7e338" stroke-width="2.5" stroke-linecap="round"/><path d="M234.8211,179.84013l3.1176,4.31666" fill="none" stroke="#a7e338" stroke-width="2.5" stroke-linecap="round"/><path d="M239.39358,177.15641l3.53327,4.26429" fill="none" stroke="#a7e338" stroke-width="2.5" stroke-linecap="round"/><path d="M242.0727,171.66773l5.44942,6.10814" fill="none" stroke="#a7e338" stroke-width="2.5" stroke-linecap="round"/></g></g></svg>