<svg version="1.1" xmlns="http://www.w3.org/2000/svg" xmlns:xlink="http://www.w3.org/1999/xlink" width="69.18735" height="68.50906" viewBox="0,0,69.18735,68.50906"><g transform="translate(-205.40636,-145.74547)"><g data-paper-data="{&quot;isPaintingLayer&quot;:true}" fill-rule="nonzero" stroke-linecap="butt" stroke-linejoin="miter" stroke-miterlimit="10" stroke-dasharray="" stroke-dashoffset="0" style="mix-blend-mode: normal"><path d="M274.59371,180c0,18.91825 -15.48811,34.25453 -34.59368,34.25453c-19.10556,0 -34.59367,-15.33627 -34.59367,-34.25453c0,-18.91825 15.48811,-34.25453 34.59367,-34.25453c19.10556,0 34.59368,15.33628 34.59368,34.25453z" fill="#efefef" stroke="none" stroke-width="0"/><path d="M215.10498,180c0,-13.69666 11.14588,-24.8 24.89502,-24.8c13.74914,0 24.89502,11.10334 24.89502,24.8c0,13.69666 -11.14588,24.8 -24.89502,24.8c-13.74914,0 -24.89502,-11.10334 -24.89502,-24.8z" fill="#a3e339" stroke="none" stroke-width="0"/><path d="M255.74012,180c0,8.18762 -7.04709,14.825 -15.74012,14.825c-8.69303,0 -15.74012,-6.63738 -15.74012,-14.825c0,-8.18762 7.04709,-14.825 15.74012,-14.825c8.69303,0 15.74012,6.63738 15.74012,14.825z" fill="#000000" stroke="#a3e339" stroke-width="2.5"/><path d="M231.5,173.1c0,-1.32548 1.07452,-2.4 2.4,-2.4c1.32548,0 2.4,1.07452 2.4,2.4c0,1.32548 -1.07452,2.4 -2.4,2.4c-1.32548,0 -2.4,-1.07452 -2.4,-2.4z" fill="#ffffff" stroke="none" stroke-width="0"/></g></g></svg>